if (_typeface_js && _typeface_js.loadFace) _typeface_js.loadFace({"glyphs":{"0":{"ha":694,"x_min":45,"x_max":648,"o":"m 45 484 q 138 839 45 709 q 340 969 232 969 q 561 830 474 969 q 648 479 648 690 q 552 111 648 237 q 355 -16 456 -16 q 202 43 276 -16 q 87 212 129 103 q 45 484 45 321 m 179 485 q 222 142 179 256 q 351 28 265 28 q 470 133 426 28 q 515 470 515 237 q 472 814 515 700 q 343 929 429 929 q 220 818 261 929 q 179 485 179 707 z "},"1":{"ha":694,"x_min":161,"x_max":528,"o":"m 161 857 l 386 969 l 412 969 l 412 139 q 436 50 412 74 q 528 25 461 25 l 528 0 l 174 0 l 174 25 q 269 50 245 25 q 293 139 293 74 l 293 717 q 283 830 293 804 q 243 857 274 857 q 174 835 212 857 l 161 857 z "},"2":{"ha":694,"x_min":39,"x_max":659,"o":"m 67 709 q 338 969 119 969 q 526 892 452 969 q 600 719 600 814 q 560 552 600 635 q 404 338 520 469 q 172 102 288 208 l 449 102 q 579 122 545 102 q 632 178 613 141 l 659 178 l 591 0 l 39 0 l 39 25 q 321 307 220 184 q 454 504 422 431 q 485 654 485 576 q 421 806 485 751 q 286 860 358 860 q 94 709 157 860 l 67 709 z "},"3":{"ha":694,"x_min":80,"x_max":604,"o":"m 95 766 q 342 969 168 969 q 496 914 433 969 q 558 777 558 859 q 434 563 558 671 q 561 466 519 529 q 604 311 604 403 q 495 73 604 163 q 226 -16 387 -16 q 80 57 80 -16 q 96 93 80 77 q 132 108 113 108 q 195 90 159 108 q 339 40 296 40 q 456 94 408 40 q 505 234 505 148 q 438 401 505 331 q 252 471 372 471 l 232 471 l 232 496 q 394 576 340 515 q 448 713 448 638 q 402 826 448 783 q 284 870 355 870 q 118 755 176 870 l 95 766 z "},"4":{"ha":694,"x_min":31,"x_max":664,"o":"m 463 969 l 536 969 l 536 345 l 664 345 l 664 241 l 536 241 l 536 0 l 419 0 l 419 241 l 31 241 l 31 351 l 463 969 m 419 817 l 88 345 l 419 345 l 419 817 z "},"5":{"ha":694,"x_min":85,"x_max":627,"o":"m 294 954 l 627 954 l 575 847 l 294 847 l 231 709 q 517 572 424 673 q 610 338 610 470 q 495 87 610 190 q 237 -16 380 -16 q 132 11 178 -16 q 85 76 85 37 q 100 111 85 97 q 132 124 115 124 q 205 96 163 124 q 322 55 270 55 q 459 120 395 55 q 523 275 523 185 q 413 496 523 403 q 119 593 302 589 l 294 954 z "},"6":{"ha":694,"x_min":65,"x_max":648,"o":"m 629 969 l 629 942 q 376 825 493 942 q 213 526 260 708 q 309 581 259 563 q 410 599 358 599 q 578 524 509 599 q 648 324 648 448 q 566 84 648 184 q 363 -16 484 -16 q 150 99 235 -16 q 65 380 65 215 q 236 804 65 628 q 629 969 400 973 m 204 481 q 194 368 194 417 q 243 129 194 232 q 378 26 292 26 q 484 83 441 26 q 528 245 528 140 q 482 454 528 372 q 351 537 436 537 q 281 523 317 537 q 204 481 244 509 z "},"7":{"ha":694,"x_min":59,"x_max":641,"o":"m 145 954 l 641 954 l 334 -16 l 254 -16 l 535 845 l 254 845 q 83 729 151 845 l 59 739 l 145 954 z "},"8":{"ha":694,"x_min":81,"x_max":612,"o":"m 267 486 q 125 629 157 569 q 92 746 92 689 q 163 904 92 840 q 340 969 233 969 q 519 906 447 969 q 592 766 592 844 q 400 530 592 646 q 564 375 516 441 q 612 227 612 310 q 536 55 612 125 q 348 -16 460 -16 q 158 53 235 -16 q 81 220 81 123 q 120 345 81 288 q 267 486 160 401 m 366 559 q 497 766 497 654 q 455 890 497 847 q 340 932 414 932 q 234 891 277 932 q 191 787 191 849 q 317 598 191 701 l 366 559 m 298 460 q 183 233 183 363 q 230 86 183 146 q 357 25 277 25 q 473 70 427 25 q 519 179 519 115 q 474 295 519 241 q 356 412 430 349 l 298 460 z "},"9":{"ha":694,"x_min":51,"x_max":633,"o":"m 64 13 q 332 140 216 13 q 484 425 448 267 q 387 372 435 389 q 291 354 339 354 q 119 432 188 354 q 51 639 51 510 q 133 872 51 775 q 334 969 216 969 q 549 856 465 969 q 633 574 633 743 q 559 285 633 418 q 362 68 486 153 q 100 -16 237 -16 q 64 -13 79 -16 l 64 13 m 494 473 q 502 582 502 532 q 455 831 502 735 q 322 927 408 927 q 214 874 257 927 q 170 722 170 821 q 214 504 170 593 q 351 415 258 415 q 420 430 385 415 q 494 473 456 444 z "}," ":{"ha":347,"x_min":0,"x_max":0,"o":""},"!":{"ha":376,"x_min":115,"x_max":273,"o":"m 180 251 l 121 806 q 116 874 116 859 q 137 944 116 913 q 194 975 157 975 q 252 947 231 975 q 273 873 273 918 q 267 800 273 852 l 204 251 l 180 251 m 191 134 q 245 112 222 134 q 267 58 267 90 q 245 3 267 26 q 191 -19 222 -19 q 137 3 159 -19 q 115 58 115 26 q 137 112 115 90 q 191 134 159 134 z "},"\"":{"ha":564,"x_min":90,"x_max":474,"o":"m 142 579 l 104 779 q 90 892 90 862 q 155 975 90 975 q 205 955 185 975 q 225 903 225 935 q 208 779 225 875 l 171 579 l 142 579 m 390 579 l 353 777 q 337 892 337 864 q 406 975 337 975 q 457 953 439 975 q 474 903 474 931 q 461 777 474 844 l 422 579 l 390 579 z "},"#":{"ha":926,"x_min":60,"x_max":866,"o":"m 60 689 l 279 689 l 336 965 l 420 965 l 363 689 l 649 689 l 707 965 l 789 965 l 732 689 l 866 689 l 866 608 l 715 608 l 663 357 l 866 357 l 866 274 l 646 274 l 589 0 l 505 0 l 563 274 l 277 274 l 220 0 l 136 0 l 194 274 l 60 274 l 60 357 l 210 357 l 262 608 l 60 608 l 60 689 m 347 608 l 294 357 l 580 357 l 631 608 l 347 608 z "},"$":{"ha":694,"x_min":72,"x_max":633,"o":"m 319 1013 l 361 1013 l 361 969 q 589 910 475 962 l 589 700 l 564 700 q 504 859 562 801 q 361 924 446 916 l 361 567 q 450 511 369 562 q 565 419 530 459 q 616 337 600 380 q 633 246 633 295 q 566 77 633 153 q 361 -9 498 1 l 361 -98 l 319 -98 l 319 -9 q 72 45 191 -6 l 72 244 l 98 244 q 176 90 111 145 q 319 31 242 35 l 319 448 q 72 743 72 581 q 136 895 72 830 q 319 969 199 959 l 319 1013 m 319 594 l 319 924 q 216 877 256 918 q 176 782 176 836 q 319 594 176 687 m 361 422 l 361 33 q 485 92 437 43 q 532 206 532 141 q 498 311 532 264 q 361 422 463 357 z "},"%":{"ha":1143,"x_min":28,"x_max":1115,"o":"m 872 974 l 932 974 l 269 -39 l 209 -39 l 872 974 m 28 726 q 81 900 28 831 q 208 969 134 969 q 337 901 283 969 q 391 724 391 833 q 337 545 391 613 q 212 476 283 476 q 81 546 134 476 q 28 726 28 616 m 109 725 q 135 555 109 612 q 211 498 160 498 q 286 553 261 498 q 311 718 311 608 q 285 892 311 834 q 208 949 260 949 q 134 893 159 949 q 109 725 109 838 m 753 242 q 808 419 753 354 q 932 484 864 484 q 1061 416 1008 484 q 1115 240 1115 348 q 1058 56 1115 121 q 937 -8 1001 -8 q 810 57 867 -8 q 753 242 753 121 m 833 240 q 858 71 833 127 q 935 14 884 14 q 1010 69 985 14 q 1035 234 1035 124 q 1009 407 1035 349 q 932 465 984 465 q 858 409 883 465 q 833 240 833 353 z "},"&":{"ha":1071,"x_min":45,"x_max":1048,"o":"m 999 619 l 999 594 q 915 566 952 592 q 815 416 878 541 q 694 221 764 315 q 912 90 807 90 q 986 120 955 90 q 1025 189 1018 149 l 1048 173 q 966 25 1027 71 q 841 -21 906 -21 q 719 13 776 -21 q 597 115 662 47 q 283 -21 456 -21 q 114 41 183 -21 q 45 197 45 102 q 109 370 45 289 q 329 536 173 452 q 276 746 276 643 q 345 910 276 846 q 506 975 413 975 q 639 928 586 975 q 692 812 692 880 q 478 559 692 657 q 660 263 535 440 q 770 515 770 396 q 706 594 770 587 l 706 619 l 999 619 m 456 603 q 610 804 610 678 q 581 896 610 863 q 506 928 553 928 q 430 896 455 928 q 404 797 404 863 q 456 603 404 697 m 561 153 q 349 487 463 267 q 190 255 190 408 q 242 124 190 181 q 366 67 294 67 q 561 153 471 67 z "},"'":{"ha":246,"x_min":55,"x_max":191,"o":"m 107 578 l 71 779 q 55 888 55 863 q 121 975 55 975 q 172 954 153 975 q 191 904 191 933 q 174 779 191 876 l 137 578 l 107 578 z "},"(":{"ha":463,"x_min":62,"x_max":441,"o":"m 441 996 l 441 972 q 194 354 194 831 q 441 -267 194 -131 l 441 -293 q 62 353 62 -80 q 169 748 62 582 q 441 996 275 913 z "},")":{"ha":463,"x_min":22,"x_max":400,"o":"m 22 -293 l 22 -267 q 269 349 269 -127 q 208 747 269 596 q 22 970 148 898 l 22 996 q 400 351 400 783 q 299 -35 400 138 q 22 -293 197 -207 z "},"*":{"ha":694,"x_min":99,"x_max":597,"o":"m 339 737 q 316 841 338 774 q 294 938 294 907 q 310 982 294 962 q 349 1002 326 1002 q 389 982 373 1002 q 404 939 404 962 q 391 863 404 906 q 361 737 362 772 q 444 812 397 761 q 547 878 502 878 q 581 863 565 878 q 597 827 597 848 q 477 745 597 770 q 374 715 401 728 q 455 688 391 703 q 566 651 536 670 q 595 600 595 632 q 581 565 595 579 q 548 551 566 551 q 439 620 502 551 q 361 692 388 676 q 383 589 361 654 q 403 499 403 527 q 388 451 403 471 q 349 431 372 431 q 310 451 326 431 q 294 497 294 471 q 317 594 294 528 q 339 692 336 652 q 250 610 310 677 q 152 551 195 551 q 115 565 130 551 q 99 599 99 580 q 129 651 99 633 q 258 692 159 670 q 321 715 301 702 q 233 743 295 730 q 120 785 140 763 q 99 829 99 806 q 115 864 99 850 q 151 878 131 878 q 242 826 192 878 q 339 737 315 750 z "},"+":{"ha":926,"x_min":95,"x_max":832,"o":"m 95 520 l 419 520 l 419 845 l 507 845 l 507 520 l 832 520 l 832 433 l 507 433 l 507 110 l 419 110 l 419 433 l 95 433 l 95 520 z "},",":{"ha":376,"x_min":87,"x_max":288,"o":"m 87 -205 q 239 -28 239 -146 q 234 -7 239 -14 q 218 0 229 0 q 199 -7 212 0 q 161 -19 177 -19 q 109 3 131 -19 q 87 56 87 25 q 113 114 87 90 q 176 138 139 138 q 258 97 227 138 q 288 -2 288 56 q 87 -232 288 -162 l 87 -205 z "},"-":{"ha":463,"x_min":59,"x_max":404,"o":"m 59 378 l 404 378 l 404 269 l 59 269 l 59 378 z "},".":{"ha":376,"x_min":111,"x_max":265,"o":"m 188 135 q 242 113 219 135 q 265 58 265 92 q 242 4 265 26 q 188 -19 220 -19 q 134 4 157 -19 q 111 58 111 26 q 134 113 111 92 q 188 135 157 135 z "},"/":{"ha":390,"x_min":0,"x_max":390,"o":"m 298 996 l 390 996 l 92 -21 l 0 -21 l 298 996 z "},":":{"ha":376,"x_min":113,"x_max":267,"o":"m 189 659 q 243 637 221 659 q 265 584 265 615 q 243 531 265 553 q 190 509 221 509 q 136 531 158 509 q 113 585 113 553 q 135 637 113 614 q 189 659 156 659 m 189 135 q 243 113 220 135 q 267 58 267 92 q 244 4 267 26 q 189 -19 221 -19 q 135 4 158 -19 q 113 58 113 26 q 136 113 113 92 q 189 135 159 135 z "},";":{"ha":376,"x_min":87,"x_max":288,"o":"m 188 659 q 243 637 220 659 q 265 584 265 615 q 243 531 265 553 q 189 509 220 509 q 135 531 157 509 q 113 585 113 553 q 135 637 113 615 q 188 659 156 659 m 87 -205 q 239 -28 239 -146 q 234 -7 239 -14 q 218 0 229 0 q 199 -7 212 0 q 161 -19 177 -19 q 109 3 131 -19 q 87 56 87 25 q 113 114 87 90 q 176 138 139 138 q 258 97 227 138 q 288 -2 288 56 q 87 -232 288 -162 l 87 -205 z "},"<":{"ha":926,"x_min":96,"x_max":831,"o":"m 831 127 l 96 437 l 96 516 l 831 825 l 831 731 l 213 477 l 831 222 l 831 127 z "},"=":{"ha":926,"x_min":96,"x_max":831,"o":"m 96 679 l 831 679 l 831 591 l 96 591 l 96 679 m 96 361 l 831 361 l 831 274 l 96 274 l 96 361 z "},">":{"ha":926,"x_min":96,"x_max":831,"o":"m 96 825 l 831 515 l 831 437 l 96 127 l 96 222 l 714 475 l 96 730 l 96 825 z "},"?":{"ha":535,"x_min":31,"x_max":506,"o":"m 278 227 l 252 227 q 251 267 251 253 q 304 484 251 369 q 367 634 355 596 q 378 732 378 673 q 335 879 378 825 q 231 932 292 932 q 155 904 190 932 q 120 840 120 875 q 141 786 120 825 q 163 724 163 743 q 148 684 163 702 q 113 667 132 667 q 56 699 80 667 q 31 770 31 730 q 105 919 31 862 q 271 975 180 975 q 438 911 370 975 q 506 758 506 846 q 481 636 506 692 q 384 492 457 581 q 299 365 320 415 q 278 236 278 314 l 278 227 m 271 134 q 324 112 302 134 q 347 58 347 90 q 324 4 347 26 q 271 -19 302 -19 q 216 4 239 -19 q 194 58 194 26 q 217 112 194 90 q 271 134 239 134 z "},"@":{"ha":1274,"x_min":66,"x_max":1245,"o":"m 955 660 l 876 389 q 812 131 812 174 q 826 96 812 113 q 863 80 840 80 q 990 136 920 80 q 1105 299 1059 191 q 1151 523 1151 406 q 1028 822 1151 703 q 711 940 906 940 q 292 744 455 940 q 130 294 130 549 q 279 -97 130 54 q 661 -248 429 -248 q 997 -143 859 -248 q 1206 127 1136 -37 l 1245 127 q 1024 -173 1188 -58 q 657 -289 860 -289 q 235 -118 404 -289 q 66 312 66 52 q 255 784 66 593 q 706 975 444 975 q 1061 844 930 975 q 1192 510 1192 712 q 1085 176 1192 321 q 817 31 978 31 q 740 54 766 31 q 713 123 713 77 q 726 224 713 162 q 458 31 570 31 q 369 80 401 31 q 336 188 336 129 q 395 400 336 285 q 546 589 454 515 q 709 664 637 664 q 786 641 757 664 q 826 570 815 617 l 848 645 l 955 660 m 718 632 q 536 472 629 632 q 443 208 443 311 q 465 142 443 172 q 521 113 486 113 q 663 195 586 113 q 770 377 739 278 q 802 535 802 477 q 779 603 802 574 q 718 632 757 632 z "},"A":{"ha":1071,"x_min":18,"x_max":1050,"o":"m 539 996 l 916 127 q 966 47 941 68 q 1050 25 991 25 l 1050 0 l 659 0 l 659 25 q 759 92 759 25 q 740 157 759 113 l 668 321 l 283 321 l 198 127 q 191 89 191 109 q 293 25 191 25 l 293 0 l 18 0 l 18 25 q 85 55 58 30 q 146 160 112 81 l 513 996 l 539 996 m 476 762 l 307 373 l 646 373 l 476 762 z "},"B":{"ha":926,"x_min":60,"x_max":867,"o":"m 652 490 q 811 405 755 470 q 867 256 867 339 q 817 111 867 174 q 693 24 767 49 q 497 0 618 0 l 60 0 l 60 25 q 152 41 121 25 q 190 82 182 58 q 198 185 198 106 l 198 769 q 189 875 198 851 q 150 913 180 899 q 60 928 121 927 l 60 954 l 442 954 q 737 879 649 954 q 825 699 825 804 q 778 568 825 627 q 652 490 732 509 m 349 900 l 349 528 q 467 513 425 513 q 603 565 542 513 q 665 705 665 616 q 598 852 665 796 q 436 909 531 909 q 349 900 395 909 m 349 463 l 349 67 q 464 49 405 49 q 632 108 572 49 q 692 254 692 167 q 614 411 692 355 q 413 467 537 467 q 349 463 384 467 z "},"C":{"ha":999,"x_min":56,"x_max":966,"o":"m 922 976 l 945 653 l 922 653 q 799 859 896 793 q 590 926 702 926 q 334 812 435 926 q 233 461 233 698 q 344 146 233 253 q 611 39 454 39 q 814 98 726 39 q 945 227 903 156 l 966 214 q 561 -21 827 -21 q 203 120 350 -21 q 56 464 56 261 q 207 826 56 677 q 576 975 358 975 q 806 924 695 975 q 845 913 831 913 q 897 976 879 913 l 922 976 z "},"D":{"ha":1143,"x_min":45,"x_max":1088,"o":"m 45 928 l 45 954 l 481 954 q 722 938 637 954 q 893 862 806 922 q 1034 698 979 802 q 1088 477 1088 594 q 1035 264 1088 363 q 890 102 983 164 q 705 20 798 41 q 487 0 612 0 l 45 0 l 45 25 q 138 41 108 25 q 177 81 169 57 q 185 185 185 106 l 185 769 q 176 874 185 850 q 138 913 168 899 q 45 928 108 928 m 336 880 l 336 69 q 486 49 399 49 q 795 164 679 49 q 911 469 911 279 q 792 785 911 666 q 492 903 673 903 q 336 880 408 903 z "},"E":{"ha":926,"x_min":50,"x_max":895,"o":"m 806 954 l 819 743 l 794 743 q 758 842 785 806 q 699 889 730 879 q 612 899 668 899 l 338 899 l 338 530 l 583 530 q 708 669 708 530 l 733 669 l 733 334 l 708 334 q 675 448 708 420 q 577 475 643 475 l 338 475 l 338 130 q 354 69 338 83 q 415 55 370 55 l 612 55 q 761 94 709 55 q 869 238 813 132 l 895 238 l 819 0 l 50 0 l 50 25 q 141 42 111 25 q 179 82 172 58 q 187 185 187 106 l 187 769 q 178 875 187 851 q 140 913 169 899 q 50 928 111 927 l 50 954 l 806 954 z "},"F":{"ha":926,"x_min":60,"x_max":880,"o":"m 870 954 l 880 748 l 854 748 q 819 843 845 808 q 748 893 792 878 q 611 907 704 907 l 345 907 l 345 532 l 561 532 q 681 555 648 532 q 714 666 714 577 l 739 666 l 739 340 l 714 340 q 682 447 713 419 q 561 475 652 475 l 345 475 l 345 185 q 353 82 345 106 q 390 42 361 58 q 480 25 420 26 l 480 0 l 60 0 l 60 25 q 148 42 118 26 q 185 81 177 58 q 193 185 193 105 l 193 769 q 184 874 193 850 q 148 912 176 899 q 60 928 119 926 l 60 954 l 870 954 z "},"G":{"ha":1143,"x_min":60,"x_max":1130,"o":"m 972 975 l 997 671 l 972 671 q 836 857 939 791 q 618 924 733 924 q 346 805 457 924 q 235 477 235 686 q 355 155 235 279 q 642 31 475 31 q 748 49 696 31 q 852 101 801 66 l 852 325 q 845 430 852 407 q 809 469 838 454 q 721 488 781 485 l 721 512 l 1130 512 l 1130 488 q 1046 468 1073 485 q 1011 423 1019 451 q 1004 325 1004 395 l 1004 79 q 795 -5 876 12 q 627 -21 715 -21 q 325 43 446 -21 q 132 213 203 106 q 60 447 60 320 q 143 729 60 595 q 357 919 226 862 q 608 975 489 975 q 852 923 736 975 q 901 909 882 909 q 946 975 938 909 l 972 975 z "},"H":{"ha":1143,"x_min":49,"x_max":1095,"o":"m 336 460 l 336 185 q 345 81 336 105 q 383 41 353 57 q 477 25 414 25 l 477 0 l 49 0 l 49 25 q 140 41 110 25 q 178 82 170 58 q 186 185 186 106 l 186 769 q 177 875 186 851 q 138 913 168 899 q 49 928 109 927 l 49 954 l 477 954 l 477 928 q 385 913 415 927 q 346 876 355 900 q 336 769 336 851 l 336 519 l 806 519 l 806 769 q 797 875 806 851 q 758 913 787 899 q 663 928 728 928 l 663 954 l 1095 954 l 1095 928 q 1005 914 1034 927 q 966 876 975 901 q 956 769 956 851 l 956 185 q 964 82 956 106 q 1003 41 972 58 q 1095 25 1033 25 l 1095 0 l 663 0 l 663 25 q 758 40 727 26 q 797 80 788 55 q 806 185 806 104 l 806 460 l 336 460 z "},"I":{"ha":535,"x_min":48,"x_max":487,"o":"m 48 928 l 48 954 l 487 954 l 487 928 q 393 914 422 928 q 353 876 363 901 q 343 769 343 851 l 343 185 q 352 80 343 104 q 391 40 360 56 q 487 25 422 25 l 487 0 l 48 0 l 48 25 q 143 40 112 26 q 183 78 174 54 q 193 185 193 103 l 193 769 q 183 877 193 852 q 143 915 173 901 q 48 928 113 928 z "},"J":{"ha":608,"x_min":23,"x_max":572,"o":"m 145 928 l 145 954 l 572 954 l 572 928 q 484 913 513 926 q 446 875 454 899 q 437 769 437 850 l 437 338 q 414 151 437 225 q 331 27 392 76 q 180 -21 271 -21 q 68 8 113 -21 q 23 83 23 37 q 43 134 23 113 q 94 154 64 154 q 175 89 143 154 q 237 28 205 28 q 276 61 266 28 q 286 210 286 94 l 286 769 q 277 875 286 851 q 238 913 268 899 q 145 928 209 928 z "},"K":{"ha":1143,"x_min":55,"x_max":1136,"o":"m 985 954 l 985 928 q 887 903 937 928 q 728 762 838 878 q 491 535 601 627 l 848 182 q 994 59 939 92 q 1116 25 1050 25 l 1136 25 l 1136 0 l 644 0 l 644 25 q 728 74 728 25 q 683 142 728 98 l 349 473 l 349 185 q 357 81 349 105 q 395 42 366 58 q 484 25 424 26 l 484 0 l 55 0 l 55 25 q 149 40 119 26 q 189 79 180 54 q 198 185 198 104 l 198 769 q 189 876 198 851 q 149 914 179 900 q 55 928 119 928 l 55 954 l 491 954 l 491 928 q 398 914 428 928 q 359 875 368 900 q 349 769 349 850 l 349 490 q 577 693 434 556 q 720 885 720 831 q 636 928 720 926 l 636 954 l 985 954 z "},"L":{"ha":926,"x_min":59,"x_max":901,"o":"m 901 255 l 821 0 l 59 0 l 59 25 q 154 41 123 25 q 194 82 186 58 q 202 185 202 106 l 202 769 q 193 874 202 850 q 153 913 184 899 q 59 928 123 927 l 59 954 l 488 954 l 488 928 q 397 913 427 927 q 359 875 368 899 q 351 769 351 850 l 351 118 q 362 75 351 86 q 424 63 374 63 l 602 63 q 770 105 713 63 q 877 263 827 146 l 901 255 z "},"M":{"ha":1375,"x_min":60,"x_max":1314,"o":"m 1025 954 l 1314 954 l 1314 928 q 1223 913 1253 927 q 1184 875 1193 899 q 1175 770 1175 850 l 1175 185 q 1183 82 1175 106 q 1221 41 1191 58 q 1314 25 1251 25 l 1314 0 l 885 0 l 885 25 q 978 41 947 25 q 1017 81 1009 57 q 1025 185 1025 105 l 1025 800 l 656 0 l 632 0 l 261 800 l 261 185 q 269 81 261 105 q 306 42 277 58 q 395 25 336 26 l 395 0 l 60 0 l 60 25 q 153 41 122 25 q 191 82 183 58 q 199 185 199 106 l 199 764 q 188 855 199 826 q 146 903 177 884 q 60 928 115 922 l 60 954 l 352 954 l 690 225 l 1025 954 z "},"N":{"ha":1143,"x_min":16,"x_max":1123,"o":"m 1123 954 l 1123 928 l 1086 928 q 993 906 1013 928 q 973 794 973 883 l 973 -11 l 954 -11 l 271 757 l 271 190 q 284 81 271 110 q 325 40 297 52 q 410 25 353 27 l 410 0 l 66 0 l 66 25 q 162 41 132 26 q 201 85 192 56 q 210 227 210 114 l 210 818 q 16 928 147 928 l 16 954 l 293 954 l 911 250 l 911 786 q 894 901 911 873 q 809 928 877 928 l 772 928 l 772 954 l 1123 954 z "},"O":{"ha":1071,"x_min":51,"x_max":1019,"o":"m 1019 479 q 966 249 1019 364 q 795 56 913 134 q 538 -21 677 -21 q 197 123 344 -21 q 51 477 51 267 q 192 828 51 681 q 534 975 334 975 q 877 830 734 975 q 1019 479 1019 686 m 848 474 q 767 795 848 669 q 533 920 686 920 q 302 797 382 920 q 222 479 222 674 q 309 153 222 274 q 536 33 395 33 q 762 152 675 33 q 848 474 848 271 z "},"P":{"ha":839,"x_min":34,"x_max":812,"o":"m 320 456 l 320 185 q 329 80 320 104 q 368 40 337 56 q 463 25 398 25 l 463 0 l 34 0 l 34 25 q 123 41 94 26 q 161 81 153 57 q 170 185 170 105 l 170 769 q 160 875 170 851 q 122 913 151 899 q 34 928 94 927 l 34 954 l 440 954 q 718 873 624 954 q 812 686 812 793 q 727 503 812 581 q 504 425 642 425 q 320 456 421 425 m 320 883 l 320 504 q 437 477 390 477 q 585 534 530 477 q 640 682 640 591 q 576 842 640 783 q 422 901 512 901 q 320 883 374 901 z "},"Q":{"ha":1071,"x_min":54,"x_max":1022,"o":"m 661 -7 q 1012 -248 802 -237 l 1012 -273 l 983 -273 q 715 -207 884 -273 q 399 0 547 -140 q 152 179 250 47 q 54 477 54 311 q 196 828 54 681 q 538 975 338 975 q 877 833 732 975 q 1022 479 1022 692 q 921 174 1022 307 q 661 -7 821 41 m 851 475 q 767 798 851 676 q 536 920 682 920 q 305 797 385 920 q 226 479 226 674 q 312 154 226 275 q 539 33 397 33 q 769 158 688 33 q 851 475 851 283 z "},"R":{"ha":1071,"x_min":47,"x_max":1029,"o":"m 581 461 l 796 195 q 919 66 871 101 q 1029 25 967 31 l 1029 0 l 781 0 l 420 448 q 397 446 410 446 q 330 448 349 446 l 330 185 q 337 82 330 106 q 374 42 345 58 q 463 25 404 26 l 463 0 l 47 0 l 47 25 q 133 42 104 27 q 170 80 161 56 q 179 185 179 104 l 179 769 q 172 869 179 846 q 138 909 165 892 q 64 928 111 926 l 47 928 l 47 954 l 484 954 q 743 879 663 954 q 823 705 823 804 q 581 461 823 524 m 330 880 l 330 494 q 651 701 651 494 q 592 844 651 782 q 437 905 532 905 q 330 880 386 905 z "},"S":{"ha":767,"x_min":71,"x_max":696,"o":"m 640 974 l 640 659 l 614 659 q 528 844 600 768 q 359 919 457 919 q 241 878 289 919 q 193 779 193 837 q 223 699 193 736 q 378 586 252 660 q 529 494 460 538 q 647 386 598 449 q 696 242 696 323 q 605 51 696 123 q 402 -21 513 -21 q 201 21 328 -21 q 157 29 176 29 q 101 -21 121 29 l 75 -21 l 75 300 l 101 300 q 206 98 130 162 q 375 34 282 34 q 507 76 456 34 q 559 185 559 119 q 514 297 559 241 q 323 435 469 352 q 123 578 175 518 q 71 728 71 638 q 149 904 71 832 q 340 975 227 975 q 512 935 406 975 q 559 924 539 924 q 614 974 595 924 l 640 974 z "},"T":{"ha":926,"x_min":32,"x_max":895,"o":"m 42 954 l 882 954 l 895 738 l 868 738 q 806 863 856 832 q 665 893 757 893 l 537 893 l 537 185 q 545 82 537 106 q 583 41 553 58 q 677 25 613 25 l 677 0 l 249 0 l 249 25 q 340 42 310 25 q 378 82 371 58 q 386 185 386 106 l 386 893 l 262 893 q 153 883 186 893 q 90 834 119 873 q 57 738 61 795 l 32 738 l 42 954 z "},"U":{"ha":1143,"x_min":44,"x_max":1116,"o":"m 44 928 l 44 954 l 470 954 l 470 928 q 384 911 413 927 q 347 872 355 896 q 339 769 339 848 l 339 346 q 346 215 339 256 q 386 131 353 175 q 475 62 419 87 q 608 38 530 38 q 787 80 715 38 q 884 192 859 122 q 909 382 909 262 l 909 769 q 900 875 909 851 q 860 913 890 899 q 766 928 830 928 l 766 954 l 1116 954 l 1116 928 q 1018 914 1049 928 q 978 875 987 899 q 969 769 969 850 l 969 382 q 939 173 969 256 q 815 35 908 91 q 594 -21 722 -21 q 400 8 484 -21 q 270 87 316 37 q 206 199 224 137 q 189 351 189 261 l 189 769 q 179 876 189 851 q 139 914 170 900 q 44 928 109 928 z "},"V":{"ha":999,"x_min":18,"x_max":984,"o":"m 18 954 l 422 954 l 422 928 q 335 911 353 928 q 317 866 317 893 q 349 761 317 840 l 564 233 l 765 768 q 792 861 792 840 q 694 928 792 925 l 694 954 l 984 954 l 984 928 q 892 877 931 927 q 810 711 853 827 l 532 -21 l 507 -21 l 191 761 q 118 893 151 861 q 18 928 86 926 l 18 954 z "},"W":{"ha":1375,"x_min":12,"x_max":1367,"o":"m 12 954 l 376 954 l 376 928 q 292 866 292 926 q 317 769 292 840 l 507 251 l 660 677 l 611 803 q 556 905 581 884 q 479 928 532 926 l 479 954 l 857 954 l 857 928 q 764 862 764 922 q 787 760 764 821 l 981 251 l 1165 769 q 1190 865 1190 840 q 1090 928 1190 928 l 1090 954 l 1367 954 l 1367 928 q 1292 892 1322 927 q 1225 753 1261 857 l 952 -21 l 925 -21 l 693 590 l 471 -21 l 448 -21 l 151 790 q 95 903 117 880 q 12 928 73 926 l 12 954 z "},"X":{"ha":1071,"x_min":19,"x_max":1053,"o":"m 19 954 l 466 954 l 466 928 q 370 875 370 928 q 401 806 370 850 l 564 581 l 759 817 q 785 874 785 849 q 690 928 785 928 l 690 954 l 1019 954 l 1019 928 q 941 914 970 928 q 887 874 911 900 q 753 720 863 849 l 599 532 l 813 234 q 955 58 917 90 q 1053 25 994 25 l 1053 0 l 630 0 l 630 25 q 723 76 723 25 q 687 153 723 105 l 671 174 l 499 414 l 273 141 q 240 77 240 101 q 332 25 240 26 l 332 0 l 19 0 l 19 25 q 108 57 64 26 q 216 163 152 87 l 466 463 l 246 764 q 127 899 170 870 q 19 928 85 928 l 19 954 z "},"Y":{"ha":1071,"x_min":15,"x_max":1052,"o":"m 1052 954 l 1052 928 q 942 895 986 928 q 833 758 899 861 l 609 409 l 609 186 q 618 79 609 104 q 658 40 627 54 q 756 25 689 25 l 756 0 l 313 0 l 313 25 q 410 40 378 26 q 450 79 441 54 q 460 186 460 104 l 460 401 l 199 789 q 98 913 124 899 q 15 928 72 928 l 15 954 l 437 954 l 437 928 q 328 890 328 928 q 374 789 328 859 l 583 473 l 765 758 q 831 888 831 861 q 737 928 831 928 l 729 928 l 729 954 l 1052 954 z "},"Z":{"ha":926,"x_min":30,"x_max":899,"o":"m 132 954 l 887 954 l 238 59 l 641 59 q 790 90 741 59 q 876 254 838 121 l 899 254 l 851 0 l 30 0 l 30 25 l 662 898 l 350 898 q 179 852 213 898 q 138 718 146 807 l 113 718 l 132 954 z "},"[":{"ha":376,"x_min":82,"x_max":357,"o":"m 357 978 l 357 918 l 191 918 l 191 -215 l 357 -215 l 357 -276 l 82 -276 l 82 978 l 357 978 z "},"\\":{"ha":390,"x_min":0,"x_max":390,"o":"m 92 996 l 390 -21 l 298 -21 l 0 996 l 92 996 z "},"]":{"ha":376,"x_min":20,"x_max":294,"o":"m 20 -276 l 20 -216 l 185 -216 l 185 917 l 20 917 l 20 978 l 294 978 l 294 -276 l 20 -276 z "},"^":{"ha":810,"x_min":101,"x_max":709,"o":"m 101 467 l 380 954 l 435 954 l 709 467 l 602 467 l 401 814 l 205 467 l 101 467 z "},"_":{"ha":694,"x_min":-8,"x_max":703,"o":"m -8 -104 l 703 -104 l 703 -174 l -8 -174 l -8 -104 z "},"`":{"ha":463,"x_min":118,"x_max":345,"o":"m 345 763 l 321 763 l 118 996 l 273 996 l 345 763 z "},"a":{"ha":694,"x_min":56,"x_max":671,"o":"m 671 121 l 671 86 q 515 -19 587 -19 q 427 98 429 -19 q 310 10 366 39 q 200 -19 253 -19 q 97 27 139 -19 q 56 138 56 73 q 141 288 56 225 q 427 419 226 351 q 420 551 426 515 q 387 609 414 587 q 302 631 360 631 q 225 606 256 631 q 195 538 195 581 q 196 515 195 528 q 197 498 197 506 q 142 439 197 439 q 82 497 82 439 q 149 612 82 566 q 329 659 216 659 q 461 636 412 659 q 524 573 509 612 q 539 452 539 534 l 539 129 q 580 63 539 63 q 671 121 620 63 m 427 129 l 427 382 q 222 276 272 318 q 172 174 172 235 q 202 94 172 127 q 277 60 232 60 q 350 78 313 60 q 427 129 387 95 z "},"b":{"ha":767,"x_min":30,"x_max":718,"o":"m 30 916 l 224 996 l 249 996 l 249 532 q 344 628 292 596 q 458 659 397 659 q 641 569 564 659 q 718 346 718 478 q 614 84 718 187 q 374 -19 509 -19 q 258 2 317 -19 q 136 64 199 23 l 136 773 q 123 871 136 845 q 70 898 109 898 q 39 892 55 898 l 30 916 m 249 491 l 249 102 q 322 45 283 64 q 403 26 360 26 q 546 111 492 26 q 600 298 600 195 q 545 483 600 404 q 397 562 490 562 q 322 544 359 562 q 249 491 285 526 z "},"c":{"ha":608,"x_min":37,"x_max":593,"o":"m 593 240 q 494 57 568 133 q 322 -19 420 -19 q 114 79 192 -19 q 37 314 37 177 q 128 564 37 469 q 353 659 219 659 q 511 612 446 659 q 576 509 576 565 q 557 470 576 485 q 509 454 538 454 q 435 523 446 454 q 405 594 429 570 q 330 617 381 617 q 196 548 243 617 q 148 378 148 479 q 208 172 148 251 q 372 93 269 93 q 570 250 522 93 l 593 240 z "},"d":{"ha":767,"x_min":46,"x_max":742,"o":"m 408 911 l 608 996 l 631 996 l 631 194 q 645 100 631 123 q 690 77 658 77 q 732 87 710 77 l 742 63 l 519 -19 l 519 75 q 427 5 475 28 q 324 -19 378 -19 q 130 74 213 -19 q 46 299 46 168 q 144 552 46 444 q 372 659 242 659 q 447 647 410 659 q 519 611 484 635 l 519 787 q 507 872 519 848 q 460 897 494 897 q 420 888 443 897 l 408 911 m 519 122 l 519 426 q 465 575 519 530 q 353 621 410 621 q 224 542 280 621 q 169 349 169 463 q 234 143 169 227 q 389 59 300 59 q 460 75 428 59 q 519 122 493 91 z "},"e":{"ha":608,"x_min":44,"x_max":575,"o":"m 575 227 q 481 46 553 112 q 316 -19 410 -19 q 124 68 204 -19 q 44 314 44 155 q 122 564 44 468 q 331 659 200 659 q 508 587 441 659 q 575 402 575 515 l 139 402 q 138 376 138 385 q 201 181 138 273 q 368 90 264 90 q 553 238 502 90 l 575 227 m 431 445 q 391 567 429 524 q 294 610 353 610 q 191 565 234 610 q 142 445 149 520 l 431 445 z "},"f":{"ha":463,"x_min":34,"x_max":570,"o":"m 50 644 l 140 644 l 140 680 q 161 834 140 768 q 248 948 183 899 q 393 996 313 996 q 515 962 460 996 q 570 881 570 928 q 552 842 570 860 q 513 825 535 825 q 441 880 479 825 q 344 947 396 947 q 290 928 312 947 q 260 881 267 909 q 252 763 252 853 l 252 644 l 383 644 l 383 602 l 252 602 l 252 154 q 277 48 252 71 q 367 25 301 25 l 367 0 l 34 0 l 34 25 q 117 50 94 26 q 140 154 140 75 l 140 602 l 50 602 l 50 644 z "},"g":{"ha":694,"x_min":44,"x_max":673,"o":"m 495 619 l 644 619 q 673 597 673 619 l 673 572 q 648 553 673 553 l 549 553 q 585 435 585 500 q 516 275 585 337 q 345 214 448 214 q 253 227 299 214 q 211 182 225 203 q 197 144 197 161 q 227 112 197 120 q 334 103 257 103 l 449 104 q 616 60 564 104 q 668 -39 668 16 q 554 -222 668 -149 q 308 -294 440 -294 q 123 -252 203 -294 q 44 -165 44 -210 q 66 -104 44 -138 q 177 18 88 -71 q 106 86 106 41 q 135 158 106 119 q 218 241 163 197 q 130 319 159 272 q 100 431 100 367 q 170 592 100 524 q 352 659 240 659 q 428 649 393 659 q 495 619 464 640 m 216 490 q 256 320 216 393 q 363 248 295 248 q 437 292 409 248 q 465 404 465 336 q 426 552 465 483 q 321 621 387 621 q 244 583 273 621 q 216 490 216 545 m 209 11 q 145 -109 145 -57 q 217 -186 145 -161 q 380 -211 289 -211 q 555 -170 487 -211 q 624 -72 624 -130 q 591 -20 624 -38 q 401 0 559 -3 q 209 11 244 2 z "},"h":{"ha":767,"x_min":27,"x_max":744,"o":"m 249 996 l 249 524 q 359 624 298 589 q 472 659 420 659 q 571 624 530 659 q 626 537 613 589 q 639 391 639 485 l 639 153 q 656 54 639 83 q 744 25 673 25 l 744 0 l 421 0 l 421 25 q 508 56 491 26 q 524 153 524 86 l 524 419 q 518 505 524 477 q 482 554 511 532 q 416 576 453 576 q 350 562 388 576 q 249 490 312 548 l 249 153 q 273 48 249 72 q 361 25 296 25 l 361 0 l 35 0 l 35 25 q 113 51 91 26 q 135 153 135 76 l 135 739 q 124 869 135 841 q 74 897 113 897 q 35 889 56 897 l 27 913 l 224 996 l 249 996 z "},"i":{"ha":376,"x_min":33,"x_max":345,"o":"m 191 1000 q 241 979 220 1000 q 262 928 262 958 q 241 877 262 898 q 191 857 220 857 q 140 878 161 857 q 119 928 119 899 q 140 979 119 958 q 191 1000 161 1000 m 33 587 l 225 659 l 249 659 l 249 154 q 270 54 249 78 q 345 25 290 29 l 345 0 l 33 0 l 33 25 q 112 46 84 26 q 140 154 140 66 l 140 461 q 125 543 140 518 q 71 568 110 568 q 40 562 55 568 l 33 587 z "},"j":{"ha":376,"x_min":-101,"x_max":276,"o":"m 204 1000 q 255 979 233 1000 q 276 928 276 958 q 255 878 276 899 q 204 857 233 857 q 154 878 175 857 q 132 928 132 899 q 154 979 132 958 q 204 1000 175 1000 m 41 589 l 243 659 l 267 659 l 267 33 q 205 -213 267 -131 q 21 -294 144 -294 q -65 -275 -28 -294 q -101 -224 -101 -256 q -83 -184 -101 -201 q -43 -167 -66 -167 q 28 -200 -9 -167 q 90 -239 70 -239 q 142 -201 130 -239 q 154 -30 154 -163 l 154 459 q 90 572 154 572 q 48 564 73 572 l 41 589 z "},"k":{"ha":767,"x_min":37,"x_max":743,"o":"m 37 920 l 235 996 l 258 996 l 258 361 l 455 550 q 480 590 480 574 q 428 619 480 619 l 428 644 l 712 644 l 712 619 q 577 585 627 618 q 502 528 528 552 l 364 397 l 538 172 q 649 52 610 78 q 743 25 689 25 l 743 0 l 433 0 l 433 25 q 477 52 477 27 q 455 100 477 71 l 258 355 l 258 154 q 275 55 258 85 q 364 25 292 25 l 364 0 l 37 0 l 37 25 q 120 50 98 26 q 143 154 143 75 l 143 762 q 131 877 143 852 q 79 902 119 902 q 45 896 64 902 l 37 920 z "},"l":{"ha":376,"x_min":31,"x_max":344,"o":"m 252 996 l 252 153 q 273 51 252 75 q 344 25 294 27 l 344 0 l 31 0 l 31 25 q 121 57 104 26 q 138 153 138 89 l 138 752 q 135 843 138 822 q 116 880 132 863 q 74 897 100 897 q 41 888 58 897 l 31 913 l 228 996 l 252 996 z "},"m":{"ha":1143,"x_min":12,"x_max":1126,"o":"m 243 659 l 243 527 l 268 552 q 460 659 372 659 q 565 624 524 659 q 621 519 605 589 q 730 624 672 589 q 851 659 787 659 q 947 629 904 659 q 1005 548 989 599 q 1021 409 1021 496 l 1021 155 q 1039 55 1021 85 q 1126 25 1056 25 l 1126 0 l 798 0 l 798 25 q 884 50 861 26 q 907 155 907 74 l 907 412 l 907 455 q 877 544 908 511 q 796 576 845 576 q 641 504 714 576 l 627 491 q 628 476 627 488 q 632 404 632 444 l 632 155 q 649 55 632 85 q 738 25 667 25 l 738 0 l 408 0 l 408 25 q 495 50 472 26 q 519 155 519 74 l 519 404 q 493 534 519 492 q 405 576 467 576 q 260 507 332 576 l 243 491 l 243 155 q 262 53 243 81 q 346 25 281 25 l 346 0 l 22 0 l 22 25 q 107 50 84 26 q 130 155 130 75 l 130 448 q 115 541 130 513 q 61 570 100 570 q 33 566 49 570 q 22 562 25 563 l 12 587 l 220 659 l 243 659 z "},"n":{"ha":767,"x_min":26,"x_max":736,"o":"m 249 659 l 249 524 q 364 629 316 600 q 469 659 412 659 q 593 602 547 659 q 639 433 639 543 l 639 154 q 660 54 639 80 q 736 25 682 27 l 736 0 l 412 0 l 412 25 q 500 50 476 25 q 525 154 525 75 l 525 426 q 497 539 525 501 q 414 578 469 578 q 332 555 374 578 q 249 486 291 532 l 249 154 q 270 54 249 81 q 354 25 292 26 l 354 0 l 35 0 l 35 25 q 116 55 96 26 q 136 154 136 83 l 136 467 q 79 568 136 568 q 35 557 60 568 l 26 583 l 225 659 l 249 659 z "},"o":{"ha":767,"x_min":62,"x_max":705,"o":"m 705 342 q 607 90 705 199 q 372 -19 509 -19 q 155 74 248 -19 q 62 304 62 168 q 157 549 62 438 q 395 659 252 659 q 612 565 520 659 q 705 342 705 470 m 579 285 q 520 514 579 416 q 362 611 461 611 q 234 544 281 611 q 187 359 187 476 q 247 128 187 228 q 403 28 307 28 q 529 97 479 28 q 579 285 579 165 z "},"p":{"ha":767,"x_min":24,"x_max":726,"o":"m 252 659 l 252 512 q 355 623 299 586 q 473 659 410 659 q 648 570 571 659 q 726 341 726 481 q 628 83 726 184 q 408 -19 530 -19 q 321 -4 361 -19 q 252 40 282 11 l 252 -137 q 276 -241 252 -215 q 370 -267 300 -267 l 370 -293 l 24 -293 l 24 -267 q 115 -243 90 -267 q 139 -137 139 -219 l 139 447 q 124 544 139 520 q 79 567 110 567 q 35 559 61 567 l 24 583 l 228 659 l 252 659 m 252 469 l 252 231 q 266 114 252 151 q 319 50 279 77 q 409 23 359 23 q 552 96 499 23 q 606 292 606 170 q 554 484 606 406 q 414 561 503 561 q 330 538 370 561 q 252 469 289 515 z "},"q":{"ha":767,"x_min":52,"x_max":739,"o":"m 633 659 l 633 -138 q 650 -238 633 -208 q 739 -267 667 -267 l 739 -293 l 404 -293 l 404 -267 q 474 -260 454 -267 q 507 -227 494 -252 q 519 -138 519 -202 l 519 104 q 414 12 469 43 q 300 -19 359 -19 q 129 64 205 -19 q 52 299 52 147 q 149 558 52 458 q 377 659 246 659 q 456 648 418 659 q 531 615 494 637 q 609 659 577 631 l 633 659 m 519 145 l 519 452 q 505 542 519 510 q 453 597 491 574 q 366 619 414 619 q 221 543 274 619 q 168 344 168 467 q 224 153 168 229 q 376 77 280 77 q 451 92 422 77 q 515 140 480 106 l 519 145 z "},"r":{"ha":535,"x_min":38,"x_max":517,"o":"m 256 659 l 256 520 q 343 625 298 590 q 433 659 387 659 q 492 634 466 659 q 517 578 517 609 q 499 538 517 557 q 456 519 481 519 q 397 547 430 519 q 359 568 373 568 q 308 544 334 568 q 256 473 282 520 l 256 155 q 282 49 256 73 q 379 25 307 25 l 379 0 l 38 0 l 38 25 q 120 51 96 27 q 143 155 143 75 l 143 450 q 126 546 143 528 q 83 564 109 564 q 46 556 65 564 l 38 579 l 231 659 l 256 659 z "},"s":{"ha":535,"x_min":57,"x_max":478,"o":"m 431 644 l 431 448 l 406 448 q 352 571 396 521 q 248 621 309 621 q 168 596 199 621 q 136 539 136 572 q 168 463 136 494 q 270 397 199 431 q 433 292 387 340 q 478 173 478 243 q 410 31 478 80 q 271 -19 342 -19 q 161 1 227 -19 q 115 10 127 10 q 90 0 100 10 l 61 0 l 61 217 l 85 217 q 153 71 99 119 q 271 23 207 23 q 346 51 313 23 q 379 118 379 79 q 347 199 379 165 q 208 292 315 233 q 81 391 104 350 q 57 476 57 432 q 112 607 57 555 q 250 659 168 659 q 328 646 283 659 q 378 636 363 636 q 406 644 395 636 l 431 644 z "},"t":{"ha":463,"x_min":41,"x_max":446,"o":"m 252 849 l 252 644 l 399 644 l 399 604 l 252 604 l 252 179 q 272 91 252 120 q 332 61 292 61 q 377 75 355 61 q 418 115 399 88 l 446 115 q 368 15 412 48 q 270 -19 323 -19 q 172 27 205 -19 q 139 165 139 73 l 139 604 l 41 604 l 41 630 q 230 849 183 688 l 252 849 z "},"u":{"ha":767,"x_min":25,"x_max":748,"o":"m 25 644 l 254 644 l 254 214 q 281 105 254 142 q 361 69 308 69 q 445 91 404 69 q 526 155 486 112 l 526 523 q 513 586 526 570 q 487 610 500 602 q 418 619 475 618 l 418 644 l 641 644 l 641 188 q 655 99 641 124 q 702 74 669 74 q 748 85 721 74 l 748 58 l 552 -19 l 526 -19 l 526 119 q 413 16 468 50 q 306 -19 358 -19 q 208 15 250 -19 q 154 95 167 48 q 142 224 142 141 l 142 523 q 120 597 142 574 q 43 619 99 619 l 25 619 l 25 644 z "},"v":{"ha":694,"x_min":20,"x_max":678,"o":"m 20 644 l 309 644 l 309 619 q 239 563 239 615 q 264 473 239 532 l 393 157 l 541 524 q 555 575 555 559 q 484 619 555 616 l 484 644 l 678 644 l 678 619 q 630 597 646 616 q 585 505 614 578 l 374 -19 l 347 -19 l 161 439 q 89 583 115 550 q 20 619 63 616 l 20 644 z "},"w":{"ha":999,"x_min":20,"x_max":985,"o":"m 20 644 l 273 644 l 273 619 q 215 575 215 616 q 229 514 215 552 l 359 156 l 494 455 l 463 538 q 422 605 442 591 q 359 619 401 619 l 359 644 l 654 644 l 654 619 q 575 569 575 619 q 585 526 575 551 l 720 165 l 857 526 q 867 570 867 553 q 794 619 867 618 l 794 644 l 985 644 l 985 619 q 942 595 960 618 q 895 495 924 572 l 700 -19 l 673 -19 l 517 394 l 334 -19 l 308 -19 l 113 514 q 68 599 88 581 q 20 619 48 618 l 20 644 z "},"x":{"ha":694,"x_min":24,"x_max":671,"o":"m 31 644 l 321 644 l 321 619 q 269 585 269 616 q 296 524 269 566 l 355 430 l 421 528 q 446 583 446 565 q 395 619 446 616 l 395 644 l 608 644 l 608 619 q 449 488 537 618 l 381 388 l 490 216 q 588 77 546 127 q 671 25 630 27 l 671 0 l 387 0 l 387 25 q 446 57 446 25 q 406 142 446 78 l 314 289 l 195 113 q 172 60 172 79 q 234 25 172 25 l 234 0 l 24 0 l 24 25 q 164 148 84 29 l 288 330 l 178 502 q 111 589 142 559 q 31 619 80 618 l 31 644 z "},"y":{"ha":694,"x_min":23,"x_max":673,"o":"m 23 644 l 311 644 l 311 619 q 252 607 269 618 q 235 569 235 595 q 248 513 235 543 l 406 161 l 513 455 q 553 578 553 562 q 489 619 553 613 l 489 644 l 673 644 l 673 619 q 625 589 642 614 q 567 455 608 564 l 392 -19 q 274 -238 332 -181 q 143 -294 215 -294 q 76 -273 102 -294 q 50 -219 50 -252 q 71 -173 50 -191 q 123 -155 91 -155 q 186 -173 143 -155 q 218 -180 205 -180 q 331 -42 279 -180 l 353 14 l 129 513 q 23 619 83 616 l 23 644 z "},"z":{"ha":607,"x_min":20,"x_max":582,"o":"m 65 644 l 582 644 l 582 619 l 169 45 l 402 45 q 517 81 487 45 q 549 193 548 117 l 574 193 l 566 0 l 20 0 l 20 25 l 430 596 l 205 596 q 121 572 144 596 q 87 473 97 548 l 65 473 l 65 644 z "},"{":{"ha":665,"x_min":191,"x_max":570,"o":"m 570 -244 l 570 -268 q 387 -177 459 -255 q 315 -7 315 -100 q 329 101 315 43 q 346 209 346 171 q 305 298 346 254 q 191 351 264 342 l 191 378 q 305 431 264 387 q 346 519 346 474 q 329 627 346 557 q 315 736 315 686 q 387 906 315 828 q 570 996 460 983 l 570 972 q 452 908 487 954 q 416 818 416 863 q 433 705 416 775 q 447 599 447 645 q 393 461 447 524 q 247 366 340 399 q 394 267 340 332 q 447 130 447 201 q 433 24 447 83 q 416 -90 416 -47 q 454 -182 416 -139 q 570 -244 491 -224 z "},"|":{"ha":275,"x_min":92,"x_max":182,"o":"m 92 996 l 182 996 l 182 -294 l 92 -294 l 92 996 z "},"}":{"ha":665,"x_min":120,"x_max":498,"o":"m 120 972 l 120 996 q 302 906 230 983 q 375 736 375 828 q 361 627 375 686 q 344 519 344 557 q 385 430 344 474 q 498 378 426 387 l 498 351 q 385 298 425 342 q 344 209 344 254 q 361 101 344 171 q 375 -7 375 43 q 302 -177 375 -100 q 120 -268 230 -255 l 120 -244 q 238 -179 203 -225 q 273 -90 273 -134 q 257 24 273 -47 q 242 130 242 83 q 296 267 242 204 q 443 363 350 330 q 296 462 349 397 q 242 599 242 528 q 257 705 242 645 q 273 818 273 775 q 236 910 273 867 q 120 972 199 953 z "},"~":{"ha":926,"x_min":97,"x_max":829,"o":"m 794 578 l 829 578 q 775 427 825 480 q 654 373 726 373 q 585 383 620 373 q 400 454 550 393 q 254 496 298 496 q 132 374 153 496 l 97 374 q 152 530 100 480 q 265 579 203 579 q 524 497 334 579 q 671 454 626 454 q 794 578 780 454 z "}," ":{"ha":347,"x_min":0,"x_max":0,"o":""},"¤":{"ha":956,"x_min":146,"x_max":808,"o":"m 663 722 l 749 808 l 808 747 l 723 661 q 784 476 784 576 q 723 292 784 376 l 808 207 l 749 146 l 663 231 q 574 185 621 201 q 477 170 528 170 q 293 231 382 170 l 207 146 l 146 207 l 233 292 q 171 476 171 376 q 233 661 171 571 l 146 747 l 207 808 l 293 722 q 382 767 336 752 q 477 783 429 783 q 663 722 572 783 m 477 697 q 323 634 389 697 q 257 476 257 571 q 322 320 257 385 q 477 256 387 256 q 633 320 569 256 q 698 476 698 385 q 633 632 698 568 q 477 697 568 697 z "},"¦":{"ha":275,"x_min":92,"x_max":182,"o":"m 92 996 l 182 996 l 182 437 l 92 437 l 92 996 m 92 264 l 182 264 l 182 -294 l 92 -294 l 92 264 z "},"§":{"ha":535,"x_min":25,"x_max":512,"o":"m 177 595 q 114 681 135 637 q 92 772 92 726 q 149 911 92 855 q 290 968 206 968 q 410 924 359 968 q 461 817 461 880 q 446 773 461 791 q 408 755 431 755 q 357 811 357 755 q 361 846 357 828 q 367 881 367 869 q 345 925 367 907 q 291 943 323 943 q 200 906 237 943 q 163 825 163 869 q 197 728 163 771 q 317 621 231 684 q 455 494 398 562 q 512 344 512 426 q 361 108 512 192 q 425 21 404 66 q 446 -71 446 -23 q 390 -211 446 -154 q 250 -267 334 -267 q 129 -221 180 -267 q 77 -113 77 -176 q 94 -71 77 -88 q 132 -53 110 -53 q 167 -69 154 -53 q 180 -106 180 -85 q 175 -147 180 -125 q 170 -178 170 -167 q 193 -223 170 -205 q 250 -241 216 -241 q 340 -204 303 -241 q 378 -127 378 -167 q 369 -75 378 -100 q 342 -26 360 -50 q 193 103 306 20 q 25 356 25 228 q 177 595 25 507 m 199 574 q 92 422 92 515 q 131 310 92 360 q 243 205 170 260 q 341 127 313 152 q 447 281 447 184 q 425 365 447 324 q 336 461 402 405 l 199 574 z "},"©":{"ha":1084,"x_min":47,"x_max":1038,"o":"m 542 975 q 892 830 746 975 q 1038 480 1038 685 q 892 131 1038 276 q 542 -15 747 -15 q 192 131 338 -15 q 47 480 47 276 q 115 730 47 613 q 298 911 182 846 q 542 975 414 975 m 542 932 q 319 873 425 932 q 152 708 214 814 q 90 479 90 602 q 222 160 90 292 q 542 27 355 27 q 862 160 728 27 q 995 479 995 293 q 933 708 995 602 q 765 873 871 814 q 542 932 659 932 m 787 798 l 801 602 l 774 602 q 562 767 724 767 q 394 690 450 767 q 338 496 338 612 q 401 278 338 348 q 569 208 465 208 q 787 320 705 208 l 813 307 q 545 165 716 165 q 312 258 401 165 q 222 475 222 350 q 317 702 222 605 q 570 798 413 798 q 699 772 620 798 q 726 767 717 767 q 760 798 748 767 l 787 798 z "},"«":{"ha":694,"x_min":43,"x_max":656,"o":"m 308 673 l 347 673 l 180 351 l 347 25 l 308 25 l 43 351 l 308 673 m 616 673 l 656 673 l 489 351 l 656 25 l 616 25 l 347 351 l 616 673 z "},"¬":{"ha":926,"x_min":96,"x_max":831,"o":"m 96 679 l 831 679 l 831 274 l 744 274 l 744 591 l 96 591 l 96 679 z "},"®":{"ha":1084,"x_min":47,"x_max":1038,"o":"m 542 975 q 892 830 746 975 q 1038 480 1038 685 q 892 131 1038 276 q 542 -15 747 -15 q 192 131 338 -15 q 47 480 47 276 q 115 730 47 613 q 298 911 182 846 q 542 975 414 975 m 542 932 q 319 873 425 932 q 152 708 214 814 q 90 479 90 602 q 222 160 90 292 q 542 27 355 27 q 862 160 728 27 q 995 479 995 293 q 933 708 995 602 q 765 873 871 814 q 542 932 659 932 m 285 784 l 554 784 q 706 741 650 784 q 762 628 762 697 q 724 530 762 569 q 607 473 685 492 l 753 264 q 838 203 794 206 l 838 180 l 709 180 l 503 463 l 450 463 l 450 247 q 467 216 454 229 q 532 203 479 203 l 532 180 l 277 180 l 277 203 q 326 212 311 203 q 345 235 341 221 q 349 300 349 250 l 349 665 q 338 742 349 726 q 285 759 328 758 l 285 784 m 450 493 l 471 493 q 605 527 559 493 q 650 620 650 562 q 610 714 650 676 q 509 753 571 753 q 450 743 481 753 l 450 493 z "},"°":{"ha":550,"x_min":66,"x_max":484,"o":"m 275 975 q 422 914 361 975 q 484 766 484 853 q 422 620 484 681 q 275 558 361 558 q 128 620 189 558 q 66 766 66 681 q 128 914 66 853 q 275 975 189 975 m 275 918 q 169 875 214 918 q 123 767 123 832 q 168 660 123 705 q 275 616 212 616 q 382 660 338 616 q 426 767 426 705 q 381 874 426 829 q 275 918 337 918 z "},"±":{"ha":926,"x_min":95,"x_max":832,"o":"m 95 635 l 419 635 l 419 961 l 507 961 l 507 635 l 832 635 l 832 548 l 507 548 l 507 224 l 419 224 l 419 548 l 95 548 l 95 635 m 95 87 l 832 87 l 832 0 l 95 0 l 95 87 z "},"µ":{"ha":724,"x_min":43,"x_max":714,"o":"m 86 644 l 201 644 l 201 269 q 224 107 201 149 q 300 66 247 66 q 382 90 341 66 q 465 160 424 113 l 465 644 l 581 644 l 581 183 l 581 142 q 594 78 580 100 q 629 56 609 56 q 685 142 673 56 l 714 142 q 576 -19 702 -19 q 499 14 527 -19 q 465 114 472 47 q 357 14 412 47 q 245 -19 302 -19 q 184 -4 211 -19 q 137 40 157 11 q 136 8 136 18 q 160 -159 136 -49 q 170 -233 170 -201 q 152 -285 170 -260 q 104 -309 134 -309 q 58 -286 73 -309 q 43 -234 43 -262 q 63 -117 43 -201 q 87 66 87 -21 l 86 134 l 86 644 z "},"¶":{"ha":652,"x_min":-14,"x_max":667,"o":"m 667 954 l 667 928 l 638 928 q 571 904 585 928 q 557 785 557 879 l 557 -293 l 506 -293 l 506 915 l 375 915 l 375 -293 l 323 -293 l 323 422 q -14 690 -14 427 q 68 881 -14 808 q 302 954 151 954 l 667 954 z "},"·":{"ha":376,"x_min":111,"x_max":265,"o":"m 188 553 q 242 531 219 553 q 265 476 265 509 q 242 422 265 444 q 188 399 220 399 q 134 422 157 399 q 111 476 111 444 q 134 531 111 508 q 188 553 157 553 z "},"»":{"ha":694,"x_min":39,"x_max":651,"o":"m 387 25 l 347 25 l 515 350 l 347 673 l 387 673 l 651 350 l 387 25 m 79 25 l 39 25 l 205 350 l 39 673 l 79 673 l 347 350 l 79 25 z "},"Ё":{"ha":926,"x_min":50,"x_max":895,"o":"m 286 1208 q 349 1182 322 1208 q 375 1119 375 1156 q 349 1056 375 1082 q 286 1029 322 1029 q 222 1056 249 1029 q 196 1119 196 1082 q 222 1183 196 1157 q 286 1208 249 1208 m 637 1208 q 699 1182 673 1208 q 726 1118 726 1156 q 700 1055 726 1081 q 637 1029 673 1029 q 573 1055 600 1029 q 547 1118 547 1081 q 574 1182 547 1156 q 637 1208 600 1208 m 806 954 l 819 743 l 794 743 q 758 842 785 806 q 699 889 730 879 q 612 899 668 899 l 338 899 l 338 530 l 583 530 q 708 669 708 530 l 733 669 l 733 334 l 708 334 q 675 448 708 420 q 577 475 643 475 l 338 475 l 338 130 q 354 69 338 83 q 415 55 370 55 l 612 55 q 761 94 709 55 q 869 238 813 132 l 895 238 l 819 0 l 50 0 l 50 25 q 141 42 111 25 q 179 82 172 58 q 187 185 187 106 l 187 769 q 178 875 187 851 q 140 913 169 899 q 50 928 111 927 l 50 954 l 806 954 z "},"Ђ":{"ha":1114,"x_min":35,"x_max":1063,"o":"m 52 954 l 793 954 l 802 753 l 777 753 q 606 895 755 895 l 487 895 l 487 519 q 613 624 547 589 q 752 659 679 659 q 902 619 830 659 q 1018 506 974 579 q 1063 333 1063 432 q 987 91 1063 191 q 814 -9 911 -9 q 709 26 757 -9 l 722 50 q 789 26 758 26 q 863 71 836 26 q 890 304 890 116 q 837 520 890 467 q 708 574 784 574 q 592 541 647 574 q 487 442 536 508 l 487 152 q 517 54 487 81 q 621 25 547 26 l 621 0 l 202 0 l 202 25 q 306 51 275 25 q 336 145 336 76 l 336 895 l 231 895 q 60 753 79 895 l 35 753 l 52 954 z "},"Ѓ":{"ha":869,"x_min":58,"x_max":844,"o":"m 675 1234 l 329 1031 l 304 1031 l 427 1234 l 675 1234 m 833 954 l 844 736 l 819 736 q 741 865 803 835 q 590 895 680 895 l 344 895 l 344 120 q 377 50 344 74 q 484 25 410 26 l 484 0 l 58 0 l 58 25 q 145 40 116 25 q 184 77 175 54 q 194 161 194 99 l 194 800 q 164 905 194 882 q 58 928 134 928 l 58 954 l 833 954 z "},"Є":{"ha":969,"x_min":52,"x_max":941,"o":"m 905 975 l 924 650 l 899 650 q 782 855 876 783 q 572 926 688 926 q 324 809 420 926 q 223 520 229 691 l 642 520 l 642 460 l 223 460 q 331 148 224 256 q 593 40 438 40 q 924 227 789 40 l 941 209 q 777 42 880 104 q 546 -21 673 -21 q 316 35 433 -21 q 125 206 199 90 q 52 469 52 322 q 202 827 52 680 q 566 975 352 975 q 764 932 663 975 q 827 911 814 911 q 880 975 864 911 l 905 975 z "},"Ѕ":{"ha":767,"x_min":71,"x_max":696,"o":"m 640 974 l 640 659 l 614 659 q 528 844 600 768 q 359 919 457 919 q 241 878 289 919 q 193 779 193 837 q 223 699 193 736 q 378 586 252 660 q 529 494 460 538 q 647 386 598 449 q 696 242 696 323 q 605 51 696 123 q 402 -21 513 -21 q 201 21 328 -21 q 157 29 176 29 q 101 -21 121 29 l 75 -21 l 75 300 l 101 300 q 206 98 130 162 q 375 34 282 34 q 507 76 456 34 q 559 185 559 119 q 514 297 559 241 q 323 435 469 352 q 123 578 175 518 q 71 728 71 638 q 149 904 71 832 q 340 975 227 975 q 512 935 406 975 q 559 924 539 924 q 614 974 595 924 l 640 974 z "},"І":{"ha":536,"x_min":49,"x_max":488,"o":"m 49 928 l 49 954 l 488 954 l 488 928 q 393 914 423 928 q 354 876 363 901 q 344 769 344 851 l 344 185 q 352 80 344 104 q 392 40 361 56 q 488 25 422 25 l 488 0 l 49 0 l 49 25 q 143 40 113 26 q 184 78 174 54 q 193 185 193 103 l 193 769 q 183 877 193 852 q 143 915 174 901 q 49 928 113 928 z "},"Ї":{"ha":535,"x_min":5,"x_max":532,"o":"m 94 1208 q 157 1183 130 1208 q 184 1119 184 1158 q 157 1056 184 1082 q 94 1029 131 1029 q 31 1056 58 1029 q 5 1119 5 1082 q 32 1183 5 1158 q 94 1208 58 1208 m 442 1208 q 506 1182 479 1208 q 532 1118 532 1156 q 506 1055 532 1081 q 442 1029 479 1029 q 379 1055 406 1029 q 353 1118 353 1081 q 379 1181 353 1155 q 442 1208 406 1208 m 49 928 l 49 954 l 488 954 l 488 928 q 394 914 424 928 q 354 876 363 901 q 344 769 344 851 l 344 185 q 353 80 344 104 q 392 40 361 56 q 488 25 422 25 l 488 0 l 49 0 l 49 25 q 144 40 113 26 q 184 78 174 54 q 193 185 193 103 l 193 769 q 183 877 193 852 q 143 915 174 901 q 49 928 113 928 z "},"Ј":{"ha":608,"x_min":23,"x_max":572,"o":"m 145 928 l 145 954 l 572 954 l 572 928 q 484 913 513 926 q 446 875 454 899 q 437 769 437 850 l 437 338 q 414 151 437 225 q 331 27 392 76 q 180 -21 271 -21 q 68 8 113 -21 q 23 83 23 37 q 43 134 23 113 q 94 154 64 154 q 175 89 143 154 q 237 28 205 28 q 276 61 266 28 q 286 210 286 94 l 286 769 q 277 875 286 851 q 238 913 268 899 q 145 928 209 928 z "},"Љ":{"ha":1331,"x_min":29,"x_max":1282,"o":"m 846 528 l 902 528 q 1098 508 1023 528 q 1227 421 1172 488 q 1282 262 1282 355 q 1231 107 1282 173 q 1109 21 1181 41 q 923 0 1038 0 l 555 0 l 555 25 q 663 49 631 25 q 696 134 696 73 l 696 895 l 405 895 l 405 522 q 329 98 405 207 q 147 -10 254 -10 q 63 14 96 -10 q 29 78 29 39 q 50 129 29 107 q 102 150 70 150 q 179 115 129 150 q 220 95 207 95 q 317 212 285 95 q 349 564 349 330 l 349 753 q 341 864 349 834 q 304 911 333 894 q 218 928 275 928 l 218 954 l 986 954 l 986 928 q 873 901 901 928 q 846 788 846 873 l 846 528 m 846 60 q 905 51 876 51 q 1050 106 989 51 q 1110 258 1110 161 q 1053 417 1110 357 q 886 477 996 477 q 846 476 871 477 l 846 60 z "},"Њ":{"ha":1346,"x_min":49,"x_max":1289,"o":"m 333 528 l 690 528 l 690 808 q 676 883 690 857 q 636 918 661 908 q 555 928 612 928 l 555 954 l 975 954 l 975 928 q 872 904 904 928 q 841 808 841 880 l 841 528 l 865 528 q 1192 461 1094 528 q 1289 262 1289 395 q 1238 107 1289 174 q 1121 21 1187 41 q 937 0 1054 0 l 555 0 l 555 25 l 572 25 q 690 135 690 25 l 690 477 l 333 477 l 333 154 q 362 55 333 82 q 469 25 391 27 l 469 0 l 49 0 l 49 25 q 153 52 123 27 q 183 144 183 77 l 183 808 q 151 902 183 876 q 49 928 119 928 l 49 954 l 469 954 l 469 928 q 363 903 394 928 q 333 808 333 878 l 333 528 m 841 55 q 898 51 871 51 q 1064 110 1012 51 q 1117 261 1117 168 q 1048 424 1117 370 q 841 478 979 478 l 841 55 z "},"Ћ":{"ha":1128,"x_min":35,"x_max":1084,"o":"m 486 519 q 619 624 551 589 q 758 659 687 659 q 903 613 833 659 q 971 456 971 566 l 971 155 q 979 82 971 104 q 1015 44 987 60 q 1084 25 1042 28 l 1084 0 l 702 0 l 702 25 q 790 49 759 25 q 821 146 821 73 l 821 442 q 784 548 821 524 q 705 572 747 572 q 582 533 642 572 q 486 442 523 494 l 486 152 q 516 54 486 81 q 621 25 546 26 l 621 0 l 201 0 l 201 25 q 305 51 274 25 q 336 146 336 76 l 336 895 l 231 895 q 60 753 78 895 l 35 753 l 52 954 l 793 954 l 802 753 l 777 753 q 606 895 754 895 l 486 895 l 486 519 z "},"Ќ":{"ha":1042,"x_min":48,"x_max":1031,"o":"m 756 1234 l 410 1031 l 385 1031 l 507 1234 l 756 1234 m 338 518 l 371 518 q 515 569 456 518 q 623 751 574 619 q 685 884 661 850 q 750 940 709 917 q 864 963 791 963 q 991 885 991 963 q 968 832 991 854 q 915 810 945 810 q 833 842 884 810 q 786 859 804 859 q 732 838 751 859 q 682 731 714 817 q 519 503 609 543 q 707 332 611 475 q 715 320 711 327 l 773 237 q 914 62 869 100 q 1017 25 959 25 l 1031 25 l 1031 0 l 782 0 l 544 329 q 459 427 498 393 q 363 460 421 460 l 338 460 l 338 128 q 452 25 338 25 l 477 25 l 477 0 l 48 0 l 48 25 l 68 25 q 188 143 188 25 l 188 814 q 154 904 188 879 q 48 928 121 928 l 48 954 l 477 954 l 477 928 l 456 928 q 363 900 389 928 q 338 810 338 872 l 338 518 z "},"Ў":{"ha":1015,"x_min":4,"x_max":1011,"o":"m 760 1232 q 795 1215 780 1232 q 810 1173 810 1197 q 746 1068 810 1112 q 550 1025 682 1025 q 352 1069 414 1025 q 290 1173 290 1112 q 304 1214 290 1196 q 342 1232 319 1232 q 380 1215 364 1232 q 425 1139 397 1198 q 550 1055 466 1055 q 675 1139 634 1055 q 719 1216 704 1199 q 760 1232 734 1232 m 4 954 l 410 954 l 410 928 l 393 928 q 300 874 300 928 q 321 819 300 855 l 594 335 l 797 804 q 818 871 818 853 q 736 928 818 928 l 718 928 l 718 954 l 1011 954 l 1011 928 q 857 792 912 917 l 581 173 q 322 -21 494 -21 q 230 4 261 -21 q 199 60 199 29 q 271 129 199 129 q 364 87 313 129 q 406 66 391 66 q 511 167 456 66 l 157 810 q 83 905 118 882 q 4 928 49 928 l 4 954 z "},"Џ":{"ha":1143,"x_min":52,"x_max":1091,"o":"m 52 0 l 52 25 l 68 25 q 161 54 134 25 q 188 142 188 82 l 188 826 q 73 928 188 928 l 52 928 l 52 954 l 475 954 l 475 928 q 393 920 418 928 q 353 886 368 911 q 338 810 338 860 l 338 128 q 351 71 338 85 q 414 58 364 58 l 741 58 q 791 73 779 58 q 804 128 804 88 l 804 810 q 774 901 804 875 q 667 928 743 927 l 667 954 l 1091 954 l 1091 928 l 1069 928 q 955 810 955 928 l 955 138 q 984 52 955 78 q 1091 25 1014 25 l 1091 0 l 829 0 q 584 -267 584 0 l 559 -267 q 498 -67 559 -134 q 294 0 438 0 l 52 0 z "},"А":{"ha":1071,"x_min":18,"x_max":1050,"o":"m 539 996 l 916 127 q 966 47 941 68 q 1050 25 991 25 l 1050 0 l 659 0 l 659 25 q 759 92 759 25 q 740 157 759 113 l 668 321 l 283 321 l 198 127 q 191 89 191 109 q 293 25 191 25 l 293 0 l 18 0 l 18 25 q 85 55 58 30 q 146 160 112 81 l 513 996 l 539 996 m 476 762 l 307 373 l 646 373 l 476 762 z "},"Б":{"ha":897,"x_min":54,"x_max":844,"o":"m 54 954 l 770 954 l 778 735 l 753 735 q 572 895 745 895 l 338 895 l 338 528 l 435 528 q 749 450 654 528 q 844 260 844 372 q 756 75 844 150 q 507 0 667 0 l 54 0 l 54 25 q 142 38 117 25 q 178 75 168 51 q 189 161 189 100 l 189 793 q 177 877 189 851 q 141 915 166 903 q 54 928 116 927 l 54 954 m 338 470 l 338 62 q 440 51 385 51 q 607 110 541 51 q 673 275 673 170 q 605 423 673 370 q 423 477 538 477 q 338 470 383 477 z "},"В":{"ha":926,"x_min":60,"x_max":867,"o":"m 652 490 q 811 405 755 470 q 867 256 867 339 q 817 111 867 174 q 693 24 767 49 q 497 0 618 0 l 60 0 l 60 25 q 152 41 121 25 q 190 82 182 58 q 198 185 198 106 l 198 769 q 189 875 198 851 q 150 913 180 899 q 60 928 121 927 l 60 954 l 442 954 q 737 879 649 954 q 825 699 825 804 q 778 568 825 627 q 652 490 732 509 m 349 900 l 349 528 q 467 513 425 513 q 603 565 542 513 q 665 705 665 616 q 598 852 665 796 q 436 909 531 909 q 349 900 395 909 m 349 463 l 349 67 q 464 49 405 49 q 632 108 572 49 q 692 254 692 167 q 614 411 692 355 q 413 467 537 467 q 349 463 384 467 z "},"Г":{"ha":869,"x_min":58,"x_max":844,"o":"m 833 954 l 844 736 l 819 736 q 741 865 803 835 q 590 895 680 895 l 344 895 l 344 120 q 377 50 344 74 q 484 25 410 26 l 484 0 l 58 0 l 58 25 q 145 40 116 25 q 184 77 175 54 q 194 161 194 99 l 194 800 q 164 905 194 882 q 58 928 134 928 l 58 954 l 833 954 z "},"Д":{"ha":1038,"x_min":18,"x_max":992,"o":"m 191 954 l 992 954 l 992 928 l 968 928 q 883 901 908 928 q 858 812 858 873 l 858 155 q 887 50 858 74 q 978 25 917 25 l 992 25 l 992 -267 l 968 -267 q 869 -67 938 -134 q 628 0 801 0 l 360 0 q 217 -24 272 0 q 112 -115 163 -48 q 43 -267 62 -182 l 18 -267 l 18 25 q 244 257 160 31 q 328 793 328 484 q 297 902 328 878 q 191 928 266 927 l 191 954 m 395 895 l 379 640 q 201 60 354 256 l 635 60 q 695 72 682 60 q 708 134 708 84 l 708 895 l 395 895 z "},"Е":{"ha":926,"x_min":50,"x_max":895,"o":"m 806 954 l 819 743 l 794 743 q 758 842 785 806 q 699 889 730 879 q 612 899 668 899 l 338 899 l 338 530 l 583 530 q 708 669 708 530 l 733 669 l 733 334 l 708 334 q 675 448 708 420 q 577 475 643 475 l 338 475 l 338 130 q 354 69 338 83 q 415 55 370 55 l 612 55 q 761 94 709 55 q 869 238 813 132 l 895 238 l 819 0 l 50 0 l 50 25 q 141 42 111 25 q 179 82 172 58 q 187 185 187 106 l 187 769 q 178 875 187 851 q 140 913 169 899 q 50 928 111 927 l 50 954 l 806 954 z "},"Ж":{"ha":1385,"x_min":31,"x_max":1354,"o":"m 901 25 l 901 0 l 482 0 l 482 25 q 564 35 539 25 q 604 70 589 45 q 618 138 618 95 l 618 469 q 547 458 564 469 q 460 331 530 446 q 277 0 390 215 l 31 0 l 31 25 q 112 48 71 25 q 181 110 153 71 q 283 277 210 149 q 388 445 368 420 q 454 495 408 470 q 389 562 412 519 q 331 720 366 604 q 288 838 302 814 q 250 861 273 861 q 186 838 227 861 q 109 810 140 810 q 64 828 85 810 q 44 879 44 846 q 78 939 44 916 q 165 963 112 963 q 264 943 220 963 q 333 882 309 922 q 393 725 357 842 q 468 555 432 594 q 582 516 505 516 q 618 519 597 516 l 618 817 q 586 904 618 879 q 482 928 553 928 l 482 954 l 901 954 l 901 928 q 819 919 840 926 q 782 887 798 912 q 766 821 766 863 l 766 519 q 802 516 789 516 q 917 555 880 516 q 994 727 954 593 q 1051 881 1029 841 q 1115 942 1074 920 q 1211 963 1156 963 q 1304 938 1270 963 q 1339 880 1339 913 q 1319 831 1339 852 q 1274 810 1299 810 q 1199 838 1246 810 q 1134 862 1158 862 q 1098 842 1112 862 q 1053 722 1084 822 q 993 562 1013 597 q 931 495 974 526 q 1000 441 975 471 q 1129 229 1025 412 q 1260 55 1211 85 q 1354 25 1308 25 l 1354 0 l 1108 0 l 871 419 q 833 460 852 452 q 766 469 813 469 l 766 142 q 792 55 766 84 q 886 25 819 25 l 901 25 z "},"З":{"ha":739,"x_min":44,"x_max":678,"o":"m 83 975 l 110 975 q 155 933 119 933 q 202 943 171 933 q 379 975 298 975 q 567 908 485 975 q 648 726 648 840 q 460 496 648 541 q 621 415 563 482 q 678 253 678 347 q 585 57 678 136 q 340 -21 491 -21 q 44 167 147 -21 l 65 180 q 304 44 161 44 q 458 107 410 44 q 507 266 507 170 q 441 418 507 361 q 254 475 375 475 q 223 475 241 475 l 223 521 q 433 574 370 521 q 497 736 497 628 q 456 868 497 817 q 334 920 416 920 q 106 691 144 920 l 83 691 l 83 975 z "},"И":{"ha":1145,"x_min":48,"x_max":1096,"o":"m 671 954 l 1096 954 l 1096 928 q 990 903 1021 928 q 958 817 958 878 l 958 151 q 967 81 958 104 q 1001 41 975 58 q 1074 25 1027 25 l 1096 25 l 1096 0 l 671 0 l 671 25 l 697 25 q 761 39 734 25 q 798 77 787 53 q 808 151 808 100 l 808 726 l 336 144 q 345 75 336 96 q 380 39 354 54 q 446 25 406 25 l 473 25 l 473 0 l 48 0 l 48 25 l 72 25 q 158 54 132 25 q 185 151 185 83 l 185 817 q 159 902 185 876 q 66 928 133 928 l 48 928 l 48 954 l 473 954 l 473 928 l 446 928 q 336 817 336 928 l 336 230 l 808 812 q 781 903 808 878 q 692 928 753 928 l 671 928 l 671 954 z "},"Й":{"ha":1145,"x_min":48,"x_max":1096,"o":"m 791 1232 q 827 1215 812 1232 q 842 1173 842 1197 q 780 1069 842 1112 q 582 1025 718 1025 q 386 1068 450 1025 q 321 1173 321 1111 q 336 1214 321 1196 q 374 1232 351 1232 q 412 1215 396 1232 q 457 1139 429 1198 q 582 1055 498 1055 q 707 1139 666 1055 q 751 1216 736 1199 q 791 1232 766 1232 m 671 954 l 1096 954 l 1096 928 q 990 903 1021 928 q 958 817 958 878 l 958 151 q 967 81 958 104 q 1001 41 975 58 q 1074 25 1027 25 l 1096 25 l 1096 0 l 671 0 l 671 25 l 697 25 q 761 39 734 25 q 798 77 787 53 q 808 151 808 100 l 808 726 l 336 144 q 345 75 336 96 q 380 39 354 54 q 446 25 406 25 l 473 25 l 473 0 l 48 0 l 48 25 l 72 25 q 158 54 132 25 q 185 151 185 83 l 185 817 q 159 902 185 876 q 66 928 133 928 l 48 928 l 48 954 l 473 954 l 473 928 l 446 928 q 336 817 336 928 l 336 230 l 808 812 q 781 903 808 878 q 692 928 753 928 l 671 928 l 671 954 z "},"К":{"ha":1042,"x_min":48,"x_max":1031,"o":"m 338 518 l 371 518 q 515 569 456 518 q 623 751 574 619 q 685 884 661 850 q 750 940 709 917 q 864 963 791 963 q 991 885 991 963 q 968 832 991 854 q 915 810 945 810 q 833 842 884 810 q 786 859 804 859 q 732 838 751 859 q 682 731 714 817 q 519 503 609 543 q 707 332 611 475 q 715 320 711 327 l 773 237 q 914 62 869 100 q 1017 25 959 25 l 1031 25 l 1031 0 l 782 0 l 544 329 q 459 427 498 393 q 363 460 421 460 l 338 460 l 338 128 q 452 25 338 25 l 477 25 l 477 0 l 48 0 l 48 25 l 68 25 q 188 143 188 25 l 188 814 q 154 904 188 879 q 48 928 121 928 l 48 954 l 477 954 l 477 928 l 456 928 q 363 900 389 928 q 338 810 338 872 l 338 518 z "},"Л":{"ha":1042,"x_min":30,"x_max":992,"o":"m 195 928 l 195 954 l 992 954 l 992 928 q 888 905 920 928 q 856 821 856 882 l 856 138 q 888 48 856 72 q 992 25 921 25 l 992 0 l 566 0 l 566 25 q 674 52 643 27 q 706 138 706 76 l 706 895 l 391 895 l 391 522 q 330 123 391 256 q 149 -9 270 -9 q 30 77 30 -9 q 52 131 30 112 q 96 151 73 151 q 161 122 123 151 q 214 95 197 95 q 300 199 268 95 q 332 498 332 302 l 332 817 q 212 928 332 928 l 195 928 z "},"М":{"ha":1375,"x_min":60,"x_max":1314,"o":"m 1025 954 l 1314 954 l 1314 928 q 1223 913 1253 927 q 1184 875 1193 899 q 1175 770 1175 850 l 1175 185 q 1183 82 1175 106 q 1221 41 1191 58 q 1314 25 1251 25 l 1314 0 l 885 0 l 885 25 q 978 41 947 25 q 1017 81 1009 57 q 1025 185 1025 105 l 1025 800 l 656 0 l 632 0 l 261 800 l 261 185 q 269 81 261 105 q 306 42 277 58 q 395 25 336 26 l 395 0 l 60 0 l 60 25 q 153 41 122 25 q 191 82 183 58 q 199 185 199 106 l 199 764 q 188 855 199 826 q 146 903 177 884 q 60 928 115 922 l 60 954 l 352 954 l 690 225 l 1025 954 z "},"Н":{"ha":1143,"x_min":49,"x_max":1095,"o":"m 336 460 l 336 185 q 345 81 336 105 q 383 41 353 57 q 477 25 414 25 l 477 0 l 49 0 l 49 25 q 140 41 110 25 q 178 82 170 58 q 186 185 186 106 l 186 769 q 177 875 186 851 q 138 913 168 899 q 49 928 109 927 l 49 954 l 477 954 l 477 928 q 385 913 415 927 q 346 876 355 900 q 336 769 336 851 l 336 519 l 806 519 l 806 769 q 797 875 806 851 q 758 913 787 899 q 663 928 728 928 l 663 954 l 1095 954 l 1095 928 q 1005 914 1034 927 q 966 876 975 901 q 956 769 956 851 l 956 185 q 964 82 956 106 q 1003 41 972 58 q 1095 25 1033 25 l 1095 0 l 663 0 l 663 25 q 758 40 727 26 q 797 80 788 55 q 806 185 806 104 l 806 460 l 336 460 z "},"О":{"ha":1071,"x_min":51,"x_max":1019,"o":"m 1019 479 q 966 249 1019 364 q 795 56 913 134 q 538 -21 677 -21 q 197 123 344 -21 q 51 477 51 267 q 192 828 51 681 q 534 975 334 975 q 877 830 734 975 q 1019 479 1019 686 m 848 474 q 767 795 848 669 q 533 920 686 920 q 302 797 382 920 q 222 479 222 674 q 309 153 222 274 q 536 33 395 33 q 762 152 675 33 q 848 474 848 271 z "},"П":{"ha":1136,"x_min":49,"x_max":1087,"o":"m 800 895 l 336 895 l 336 152 q 344 80 336 103 q 378 41 353 57 q 439 25 404 25 l 475 25 l 475 0 l 49 0 l 49 25 l 71 25 q 185 144 185 25 l 185 815 q 156 902 185 876 q 49 928 126 928 l 49 954 l 1087 954 l 1087 928 l 1069 928 q 982 905 1014 928 q 951 812 951 881 l 951 127 q 1066 25 951 25 l 1087 25 l 1087 0 l 661 0 l 661 25 l 697 25 q 757 40 732 25 q 791 79 782 56 q 800 152 800 102 l 800 895 z "},"Р":{"ha":839,"x_min":34,"x_max":812,"o":"m 320 456 l 320 185 q 329 80 320 104 q 368 40 337 56 q 463 25 398 25 l 463 0 l 34 0 l 34 25 q 123 41 94 26 q 161 81 153 57 q 170 185 170 105 l 170 769 q 160 875 170 851 q 122 913 151 899 q 34 928 94 927 l 34 954 l 440 954 q 718 873 624 954 q 812 686 812 793 q 727 503 812 581 q 504 425 642 425 q 320 456 421 425 m 320 883 l 320 504 q 437 477 390 477 q 585 534 530 477 q 640 682 640 591 q 576 842 640 783 q 422 901 512 901 q 320 883 374 901 z "},"С":{"ha":999,"x_min":56,"x_max":966,"o":"m 922 976 l 945 653 l 922 653 q 799 859 896 793 q 590 926 702 926 q 334 812 435 926 q 233 461 233 698 q 344 146 233 253 q 611 39 454 39 q 814 98 726 39 q 945 227 903 156 l 966 214 q 561 -21 827 -21 q 203 120 350 -21 q 56 464 56 261 q 207 826 56 677 q 576 975 358 975 q 806 924 695 975 q 845 913 831 913 q 897 976 879 913 l 922 976 z "},"Т":{"ha":926,"x_min":32,"x_max":895,"o":"m 42 954 l 882 954 l 895 738 l 868 738 q 806 863 856 832 q 665 893 757 893 l 537 893 l 537 185 q 545 82 537 106 q 583 41 553 58 q 677 25 613 25 l 677 0 l 249 0 l 249 25 q 340 42 310 25 q 378 82 371 58 q 386 185 386 106 l 386 893 l 262 893 q 153 883 186 893 q 90 834 119 873 q 57 738 61 795 l 32 738 l 42 954 z "},"У":{"ha":1015,"x_min":4,"x_max":1011,"o":"m 4 954 l 410 954 l 410 928 l 393 928 q 300 874 300 928 q 321 819 300 855 l 594 335 l 797 804 q 818 871 818 853 q 736 928 818 928 l 718 928 l 718 954 l 1011 954 l 1011 928 q 857 792 912 917 l 581 173 q 322 -21 494 -21 q 230 4 261 -21 q 199 60 199 29 q 271 129 199 129 q 364 87 313 129 q 406 66 391 66 q 511 167 456 66 l 157 810 q 83 905 118 882 q 4 928 49 928 l 4 954 z "},"Ф":{"ha":1207,"x_min":53,"x_max":1155,"o":"m 391 954 l 817 954 l 817 928 q 708 901 738 927 q 679 817 679 875 q 746 817 719 817 q 1049 723 943 817 q 1155 484 1155 628 q 1046 242 1155 340 q 749 144 938 144 q 679 146 726 144 q 712 47 679 69 q 817 25 745 25 l 817 0 l 391 0 l 391 25 q 495 47 462 25 q 529 146 529 68 q 448 144 480 144 q 165 238 278 144 q 53 484 53 333 q 160 724 53 630 q 468 817 267 817 q 529 817 488 817 q 498 902 529 876 q 391 928 468 927 l 391 954 m 679 770 l 679 194 q 734 186 703 186 q 935 271 867 186 q 1003 486 1003 355 q 930 700 1003 624 q 734 775 857 775 q 679 770 705 775 m 529 770 q 474 775 500 775 q 277 700 350 775 q 204 486 204 624 q 272 271 204 356 q 473 186 340 186 q 529 194 505 186 l 529 770 z "},"Х":{"ha":1071,"x_min":19,"x_max":1053,"o":"m 19 954 l 466 954 l 466 928 q 370 875 370 928 q 401 806 370 850 l 564 581 l 759 817 q 785 874 785 849 q 690 928 785 928 l 690 954 l 1019 954 l 1019 928 q 941 914 970 928 q 887 874 911 900 q 753 720 863 849 l 599 532 l 813 234 q 955 58 917 90 q 1053 25 994 25 l 1053 0 l 630 0 l 630 25 q 723 76 723 25 q 687 153 723 105 l 671 174 l 499 414 l 273 141 q 240 77 240 101 q 332 25 240 26 l 332 0 l 19 0 l 19 25 q 108 57 64 26 q 216 163 152 87 l 466 463 l 246 764 q 127 899 170 870 q 19 928 85 928 l 19 954 z "},"Ц":{"ha":1143,"x_min":52,"x_max":1086,"o":"m 1086 25 l 1086 -267 l 1062 -267 q 963 -67 1031 -134 q 722 0 895 0 l 52 0 l 52 25 q 155 54 124 25 q 186 159 186 83 l 186 818 q 161 901 186 874 q 73 928 136 928 l 52 928 l 52 954 l 475 954 l 475 928 l 445 928 q 362 897 388 928 q 336 795 336 865 l 336 138 q 347 74 336 88 q 408 60 359 60 l 729 60 q 789 72 777 60 q 802 134 802 84 l 802 818 q 690 928 802 928 l 662 928 l 662 954 l 1086 954 l 1086 928 l 1062 928 q 982 907 1012 928 q 952 812 952 885 l 952 156 q 963 76 952 100 q 999 38 974 51 q 1072 25 1024 25 l 1086 25 z "},"Ч":{"ha":1038,"x_min":24,"x_max":989,"o":"m 24 954 l 452 954 l 452 928 q 347 905 381 928 q 312 818 312 882 l 312 585 q 356 466 312 498 q 469 434 399 434 q 702 490 562 434 l 702 806 q 667 905 702 882 q 562 928 631 928 l 562 954 l 989 954 l 989 928 q 886 905 920 928 q 852 812 852 882 l 852 132 q 968 25 852 25 l 989 25 l 989 0 l 562 0 l 562 25 l 583 25 q 676 55 650 25 q 702 151 702 85 l 702 437 q 406 359 535 359 q 264 386 319 359 q 186 456 210 414 q 162 585 162 498 l 162 818 q 131 901 162 874 q 24 928 100 928 l 24 954 z "},"Ш":{"ha":1558,"x_min":50,"x_max":1509,"o":"m 50 954 l 446 954 l 446 928 q 357 905 389 928 q 325 800 325 881 l 325 129 q 339 73 325 86 q 400 60 353 60 l 629 60 q 690 73 675 60 q 704 129 704 86 l 704 800 q 679 897 704 866 q 583 928 654 928 l 583 954 l 975 954 l 975 928 q 903 914 932 928 q 864 876 874 899 q 854 800 854 852 l 854 129 q 868 73 854 86 q 930 60 882 60 l 1158 60 q 1220 73 1206 60 q 1234 129 1234 86 l 1234 800 q 1208 897 1234 866 q 1114 928 1183 928 l 1114 954 l 1509 954 l 1509 928 q 1412 900 1440 928 q 1385 800 1385 871 l 1385 144 q 1414 53 1385 80 q 1509 25 1442 25 l 1509 0 l 50 0 l 50 25 q 174 134 174 25 l 174 809 q 64 928 174 928 l 50 928 l 50 954 z "},"Щ":{"ha":1558,"x_min":50,"x_max":1509,"o":"m 50 0 l 50 25 q 174 134 174 25 l 174 809 q 64 928 174 928 l 50 928 l 50 954 l 446 954 l 446 928 q 357 905 389 928 q 325 800 325 881 l 325 129 q 339 73 325 86 q 400 60 353 60 l 629 60 q 690 73 675 60 q 704 129 704 86 l 704 800 q 679 897 704 866 q 583 928 654 928 l 583 954 l 975 954 l 975 928 q 903 914 932 928 q 864 876 874 899 q 854 800 854 852 l 854 129 q 868 73 854 86 q 930 60 882 60 l 1158 60 q 1220 73 1206 60 q 1234 129 1234 86 l 1234 800 q 1208 897 1234 866 q 1114 928 1183 928 l 1114 954 l 1509 954 l 1509 928 q 1412 900 1440 928 q 1385 800 1385 871 l 1385 144 q 1414 53 1385 80 q 1509 25 1442 25 l 1509 -267 l 1484 -267 q 1387 -68 1455 -136 q 1145 0 1319 0 l 50 0 z "},"Ъ":{"ha":1051,"x_min":26,"x_max":997,"o":"m 340 895 l 252 895 q 112 860 157 895 q 51 731 66 825 l 26 731 l 44 954 l 629 954 l 629 928 l 608 928 q 515 898 539 928 q 491 792 491 867 l 491 528 l 572 528 q 896 453 795 528 q 997 261 997 379 q 917 83 997 166 q 653 0 836 0 l 204 0 l 204 25 q 294 41 264 26 q 332 80 323 56 q 340 185 340 104 l 340 895 m 491 471 l 491 62 q 596 51 537 51 q 758 109 690 51 q 825 275 825 168 q 755 425 825 374 q 564 477 684 477 q 491 471 522 477 z "},"Ы":{"ha":1362,"x_min":52,"x_max":1317,"o":"m 52 928 l 52 954 l 475 954 l 475 928 l 454 928 q 337 830 337 928 l 337 528 l 418 528 q 742 454 642 528 q 843 261 843 380 q 763 83 843 165 q 499 0 682 0 l 52 0 l 52 25 l 73 25 q 160 53 134 25 q 187 149 187 81 l 187 808 q 170 884 187 858 q 130 919 152 911 q 52 928 109 926 m 337 471 l 337 62 q 439 51 383 51 q 604 108 536 51 q 671 273 671 165 q 595 428 671 380 q 412 477 519 477 q 337 471 376 477 m 878 928 l 878 954 l 1317 954 l 1317 928 q 1222 914 1253 928 q 1182 876 1192 901 q 1173 769 1173 851 l 1173 185 q 1181 80 1173 104 q 1221 40 1190 56 q 1317 25 1251 25 l 1317 0 l 878 0 l 878 25 q 973 40 942 26 q 1013 78 1004 54 q 1023 185 1023 103 l 1023 769 q 1013 877 1023 852 q 973 915 1003 901 q 878 928 943 928 z "},"Ь":{"ha":897,"x_min":49,"x_max":840,"o":"m 49 928 l 49 954 l 471 954 l 471 928 l 451 928 q 334 830 334 928 l 334 528 l 415 528 q 739 454 638 528 q 840 261 840 380 q 759 83 840 165 q 496 0 679 0 l 49 0 l 49 25 l 69 25 q 157 53 130 25 q 184 149 184 81 l 184 808 q 166 884 184 858 q 127 919 149 911 q 49 928 105 926 m 334 471 l 334 62 q 435 51 380 51 q 600 108 532 51 q 668 273 668 165 q 592 428 668 380 q 409 477 516 477 q 334 471 373 477 z "},"Э":{"ha":969,"x_min":31,"x_max":920,"o":"m 66 975 l 47 650 l 72 650 q 190 855 96 783 q 399 926 283 926 q 647 809 551 926 q 748 520 743 691 l 330 520 l 330 460 l 748 460 q 640 148 747 256 q 378 40 533 40 q 47 227 182 40 l 31 209 q 195 42 91 104 q 425 -21 298 -21 q 655 35 538 -21 q 846 206 772 90 q 920 469 920 322 q 769 827 920 680 q 405 975 619 975 q 208 932 308 975 q 144 911 157 911 q 91 975 107 911 l 66 975 z "},"Ю":{"ha":1533,"x_min":52,"x_max":1484,"o":"m 336 519 l 543 519 q 686 837 553 699 q 1014 975 819 975 q 1239 916 1139 975 q 1412 745 1339 857 q 1484 481 1484 633 q 1342 122 1484 265 q 1019 -21 1201 -21 q 802 37 915 -21 q 616 209 688 94 q 543 459 545 323 l 336 459 l 336 149 q 365 52 336 79 q 470 25 394 25 l 470 0 l 52 0 l 52 25 q 154 52 122 26 q 186 144 186 77 l 186 814 q 156 901 186 873 q 52 928 126 928 l 52 954 l 470 954 l 470 928 q 365 902 393 928 q 336 804 336 876 l 336 519 m 1026 916 q 800 809 886 916 q 714 472 714 702 q 797 148 714 258 q 1013 37 880 37 q 1176 92 1108 37 q 1278 232 1243 146 q 1312 471 1312 319 q 1279 713 1312 622 q 1179 860 1246 804 q 1026 916 1112 916 z "},"Я":{"ha":1040,"x_min":9,"x_max":992,"o":"m 458 461 l 243 195 q 120 66 168 101 q 9 25 72 31 l 9 0 l 258 0 l 619 448 q 642 446 629 446 q 709 448 690 446 l 709 185 q 702 82 709 106 q 665 42 694 58 q 576 25 635 26 l 576 0 l 992 0 l 992 25 q 906 42 935 27 q 869 80 878 56 q 860 185 860 104 l 860 769 q 867 869 860 846 q 901 909 873 892 q 975 928 928 926 l 992 928 l 992 954 l 555 954 q 296 879 376 954 q 216 705 216 804 q 458 461 216 524 m 709 880 l 709 494 q 388 701 388 494 q 447 844 388 782 q 602 905 507 905 q 709 880 653 905 z "},"а":{"ha":694,"x_min":56,"x_max":671,"o":"m 671 121 l 671 86 q 515 -19 587 -19 q 427 98 429 -19 q 310 10 366 39 q 200 -19 253 -19 q 97 27 139 -19 q 56 138 56 73 q 141 288 56 225 q 427 419 226 351 q 420 551 426 515 q 387 609 414 587 q 302 631 360 631 q 225 606 256 631 q 195 538 195 581 q 196 515 195 528 q 197 498 197 506 q 142 439 197 439 q 82 497 82 439 q 149 612 82 566 q 329 659 216 659 q 461 636 412 659 q 524 573 509 612 q 539 452 539 534 l 539 129 q 580 63 539 63 q 671 121 620 63 m 427 129 l 427 382 q 222 276 272 318 q 172 174 172 235 q 202 94 172 127 q 277 60 232 60 q 350 78 313 60 q 427 129 387 95 z "},"б":{"ha":767,"x_min":68,"x_max":704,"o":"m 671 987 l 696 987 q 644 897 677 929 q 565 854 610 865 q 422 843 520 844 q 293 828 336 842 q 209 768 250 815 q 142 631 168 720 q 110 425 117 542 q 219 598 141 536 q 395 659 297 659 q 606 573 509 659 q 704 338 704 486 q 608 85 704 190 q 384 -19 513 -19 q 159 85 250 -19 q 68 374 68 189 q 100 650 68 528 q 184 843 132 772 q 298 936 237 913 q 477 959 360 959 l 578 958 q 671 987 652 958 m 197 359 q 261 107 197 188 q 408 26 325 26 q 526 86 473 26 q 580 279 580 146 q 520 515 580 423 q 368 607 460 607 q 248 550 298 607 q 197 359 197 493 z "},"в":{"ha":694,"x_min":40,"x_max":641,"o":"m 40 644 l 338 644 q 543 604 482 644 q 604 477 604 563 q 572 389 604 423 q 478 340 541 355 q 600 286 559 326 q 641 182 641 246 q 611 89 641 130 q 525 24 582 49 q 338 0 467 0 l 40 0 l 40 25 q 119 48 94 27 q 144 139 144 70 l 144 515 q 120 596 144 574 q 40 619 96 619 l 40 644 m 256 355 q 292 354 275 354 q 434 386 387 354 q 481 481 481 418 q 437 571 481 541 q 304 600 393 600 q 256 600 285 600 l 256 355 m 256 58 q 345 45 304 45 q 462 84 414 45 q 511 182 511 123 q 459 279 511 246 q 322 312 408 312 q 256 311 295 312 l 256 58 z "},"г":{"ha":615,"x_min":35,"x_max":597,"o":"m 35 0 l 35 25 q 123 53 102 25 q 144 143 144 80 l 144 531 q 127 598 144 576 q 35 619 110 619 l 35 644 l 572 644 l 597 473 l 568 473 q 527 575 550 551 q 448 600 504 600 l 256 600 l 256 156 q 280 50 256 75 q 374 25 304 25 l 374 0 l 35 0 z "},"д":{"ha":737,"x_min":7,"x_max":703,"o":"m 7 -172 l 7 25 q 118 73 74 26 q 195 247 161 120 q 229 506 229 373 q 206 594 229 570 q 125 619 183 618 l 125 644 l 703 644 l 703 619 q 624 597 649 619 q 600 491 600 574 l 600 121 q 703 25 600 25 l 703 -172 l 678 -172 q 631 -52 677 -103 q 488 0 585 0 l 219 0 q 33 -172 51 0 l 7 -172 m 272 600 q 153 45 272 192 l 422 45 q 478 56 467 45 q 488 115 488 68 l 488 600 l 272 600 z "},"е":{"ha":608,"x_min":44,"x_max":575,"o":"m 575 227 q 481 46 553 112 q 316 -19 410 -19 q 124 68 204 -19 q 44 314 44 155 q 122 564 44 468 q 331 659 200 659 q 508 587 441 659 q 575 402 575 515 l 139 402 q 138 376 138 385 q 201 181 138 273 q 368 90 264 90 q 553 238 502 90 l 575 227 m 431 445 q 391 567 429 524 q 294 610 353 610 q 191 565 234 610 q 142 445 149 520 l 431 445 z "},"ж":{"ha":994,"x_min":28,"x_max":966,"o":"m 648 644 l 648 619 q 575 597 595 619 q 556 516 556 575 l 556 359 l 579 359 q 660 389 629 359 q 719 497 692 418 q 784 618 750 586 q 877 650 819 650 q 932 629 911 650 q 952 584 952 608 q 934 544 952 560 q 892 528 916 528 q 848 540 877 528 q 813 548 827 548 q 754 483 777 548 q 715 389 729 411 q 669 350 701 367 q 796 215 744 326 l 804 200 l 850 119 q 966 25 900 28 l 966 0 l 792 0 l 652 245 q 571 323 607 323 q 556 321 565 323 l 556 127 q 575 46 556 66 q 648 25 595 26 l 648 0 l 347 0 l 347 25 q 420 47 401 26 q 439 127 439 67 l 439 321 q 425 323 430 323 q 343 245 387 323 l 203 0 l 28 0 l 28 25 q 146 119 95 28 l 191 200 l 199 215 q 326 350 258 332 q 280 389 294 367 q 241 483 265 412 q 183 548 218 548 q 147 540 168 548 q 103 528 118 528 q 61 544 79 528 q 43 584 43 560 q 63 629 43 608 q 118 650 84 650 q 211 618 176 650 q 276 497 245 586 q 337 387 304 414 q 416 359 370 359 l 439 359 l 439 516 q 419 597 439 575 q 347 619 400 619 l 347 644 l 648 644 z "},"з":{"ha":579,"x_min":22,"x_max":536,"o":"m 58 644 l 83 644 q 113 632 101 632 q 159 642 129 632 q 277 659 212 659 q 449 612 389 659 q 509 498 509 566 q 337 348 509 382 q 536 171 536 316 q 461 34 536 86 q 271 -19 386 -19 q 22 100 124 -19 l 40 116 q 256 31 149 31 q 363 72 321 31 q 406 180 406 113 q 358 283 406 243 q 222 323 311 323 l 222 366 q 341 400 296 366 q 387 500 387 434 q 349 592 387 557 q 252 626 311 626 q 80 448 121 626 l 54 448 l 58 644 z "},"и":{"ha":785,"x_min":35,"x_max":749,"o":"m 35 644 l 340 644 l 340 619 q 267 597 286 619 q 248 515 248 574 l 248 186 l 536 525 q 444 619 536 619 l 444 644 l 749 644 l 749 619 q 670 595 692 617 q 648 515 648 572 l 648 136 q 671 52 648 75 q 749 25 694 28 l 749 0 l 444 0 l 444 25 q 517 48 498 25 q 536 127 536 72 l 536 463 l 248 127 q 267 47 248 67 q 340 25 286 26 l 340 0 l 35 0 l 35 25 q 136 127 136 26 l 136 515 q 112 600 136 581 q 35 619 87 619 l 35 644 z "},"й":{"ha":785,"x_min":35,"x_max":749,"o":"m 178 892 q 226 944 178 944 q 304 861 270 944 q 399 789 334 789 q 464 808 442 789 q 505 873 486 826 q 574 944 533 944 q 610 929 595 944 q 624 893 624 915 q 555 796 624 841 q 401 751 486 751 q 234 792 289 751 q 178 892 178 833 m 35 644 l 340 644 l 340 619 q 267 597 286 619 q 248 515 248 574 l 248 186 l 536 525 q 444 619 536 619 l 444 644 l 749 644 l 749 619 q 670 595 692 617 q 648 515 648 572 l 648 136 q 671 52 648 75 q 749 25 694 28 l 749 0 l 444 0 l 444 25 q 517 48 498 25 q 536 127 536 72 l 536 463 l 248 127 q 267 47 248 67 q 340 25 286 26 l 340 0 l 35 0 l 35 25 q 136 127 136 26 l 136 515 q 112 600 136 581 q 35 619 87 619 l 35 644 z "},"к":{"ha":729,"x_min":38,"x_max":698,"o":"m 38 644 l 356 644 l 356 619 q 277 593 300 619 q 255 507 255 567 l 255 363 q 282 363 273 363 q 429 494 387 363 q 583 652 479 652 q 647 631 625 652 q 669 587 669 610 q 652 546 669 564 q 606 528 635 528 q 574 535 592 528 q 528 546 545 546 q 491 532 505 546 q 465 471 478 517 q 393 356 441 389 q 502 238 444 340 q 509 226 505 232 l 581 111 q 644 40 618 54 q 698 25 669 26 l 698 0 l 518 0 l 347 275 q 284 325 316 325 q 255 321 274 325 l 255 127 q 356 25 255 26 l 356 0 l 38 0 l 38 25 q 120 50 97 27 q 143 127 143 73 l 143 507 q 118 597 143 574 q 38 619 94 619 l 38 644 z "},"л":{"ha":736,"x_min":5,"x_max":699,"o":"m 102 644 l 699 644 l 699 619 q 621 599 650 619 q 593 506 593 578 l 593 145 q 615 54 593 83 q 699 25 638 25 l 699 0 l 370 0 l 370 25 q 459 53 437 25 q 481 153 481 81 l 481 600 l 251 600 l 251 258 q 215 46 251 111 q 94 -19 180 -19 q 5 58 5 -19 q 20 95 5 81 q 53 109 35 109 q 111 76 81 109 q 142 62 125 62 q 191 111 175 62 q 206 283 206 161 l 206 506 q 198 574 206 554 q 164 606 189 593 q 102 619 139 618 l 102 644 z "},"м":{"ha":925,"x_min":35,"x_max":888,"o":"m 254 644 l 459 157 l 675 644 l 888 644 l 888 619 q 809 593 830 619 q 787 490 787 568 l 787 127 q 888 25 787 25 l 888 0 l 579 0 l 579 25 q 648 44 621 26 q 675 127 675 61 l 675 534 l 438 0 l 412 0 l 181 534 l 181 144 q 200 55 181 80 q 277 25 219 29 l 277 0 l 35 0 l 35 25 q 115 53 94 28 q 136 144 136 78 l 136 509 q 114 593 136 567 q 35 619 91 619 l 35 644 l 254 644 z "},"н":{"ha":785,"x_min":35,"x_max":749,"o":"m 248 357 l 536 357 l 536 516 q 515 595 536 571 q 444 619 495 619 l 444 644 l 749 644 l 749 619 q 670 595 692 617 q 648 516 648 572 l 648 136 q 671 52 648 75 q 749 25 694 28 l 749 0 l 444 0 l 444 25 q 517 48 498 25 q 536 127 536 71 l 536 313 l 248 313 l 248 127 q 267 47 248 67 q 340 25 286 26 l 340 0 l 35 0 l 35 25 q 136 127 136 26 l 136 516 q 111 601 136 582 q 35 619 86 619 l 35 644 l 340 644 l 340 619 q 268 597 287 619 q 248 516 248 575 l 248 357 z "},"о":{"ha":767,"x_min":62,"x_max":705,"o":"m 705 342 q 607 90 705 199 q 372 -19 509 -19 q 155 74 248 -19 q 62 304 62 168 q 157 549 62 438 q 395 659 252 659 q 612 565 520 659 q 705 342 705 470 m 579 285 q 520 514 579 416 q 362 611 461 611 q 234 544 281 611 q 187 359 187 476 q 247 128 187 228 q 403 28 307 28 q 529 97 479 28 q 579 285 579 165 z "},"п":{"ha":785,"x_min":35,"x_max":749,"o":"m 35 644 l 749 644 l 749 619 q 670 595 692 617 q 648 515 648 572 l 648 136 q 671 52 648 75 q 749 25 694 28 l 749 0 l 444 0 l 444 25 q 517 48 498 25 q 536 127 536 71 l 536 600 l 248 600 l 248 127 q 267 47 248 67 q 340 25 286 26 l 340 0 l 35 0 l 35 25 q 136 127 136 26 l 136 515 q 112 600 136 581 q 35 619 87 619 l 35 644 z "},"р":{"ha":767,"x_min":24,"x_max":726,"o":"m 252 659 l 252 512 q 355 623 299 586 q 473 659 410 659 q 648 570 571 659 q 726 341 726 481 q 628 83 726 184 q 408 -19 530 -19 q 321 -4 361 -19 q 252 40 282 11 l 252 -137 q 276 -241 252 -215 q 370 -267 300 -267 l 370 -293 l 24 -293 l 24 -267 q 115 -243 90 -267 q 139 -137 139 -219 l 139 447 q 124 544 139 520 q 79 567 110 567 q 35 559 61 567 l 24 583 l 228 659 l 252 659 m 252 469 l 252 231 q 266 114 252 151 q 319 50 279 77 q 409 23 359 23 q 552 96 499 23 q 606 292 606 170 q 554 484 606 406 q 414 561 503 561 q 330 538 370 561 q 252 469 289 515 z "},"с":{"ha":608,"x_min":37,"x_max":593,"o":"m 593 240 q 494 57 568 133 q 322 -19 420 -19 q 114 79 192 -19 q 37 314 37 177 q 128 564 37 469 q 353 659 219 659 q 511 612 446 659 q 576 509 576 565 q 557 470 576 485 q 509 454 538 454 q 435 523 446 454 q 405 594 429 570 q 330 617 381 617 q 196 548 243 617 q 148 378 148 479 q 208 172 148 251 q 372 93 269 93 q 570 250 522 93 l 593 240 z "},"т":{"ha":661,"x_min":22,"x_max":640,"o":"m 387 600 l 387 130 q 410 51 387 76 q 490 25 434 26 l 490 0 l 171 0 l 171 25 q 252 50 229 25 q 275 136 275 74 l 275 600 l 171 600 q 93 576 117 600 q 51 473 68 553 l 22 473 l 47 644 l 614 644 l 640 473 l 610 473 q 569 575 593 551 q 490 600 546 600 l 387 600 z "},"у":{"ha":694,"x_min":23,"x_max":673,"o":"m 23 644 l 311 644 l 311 619 q 252 607 269 618 q 235 569 235 595 q 248 513 235 543 l 406 161 l 513 455 q 553 578 553 562 q 489 619 553 613 l 489 644 l 673 644 l 673 619 q 625 589 642 614 q 567 455 608 564 l 392 -19 q 274 -238 332 -181 q 143 -294 215 -294 q 76 -273 102 -294 q 50 -219 50 -252 q 71 -173 50 -191 q 123 -155 91 -155 q 186 -173 143 -155 q 218 -180 205 -180 q 331 -42 279 -180 l 353 14 l 129 513 q 23 619 83 616 l 23 644 z "},"ф":{"ha":926,"x_min":50,"x_max":876,"o":"m 626 -267 l 626 -293 l 304 -293 l 304 -267 q 386 -240 364 -267 q 408 -155 408 -214 l 408 44 q 345 -3 378 13 q 275 -19 312 -19 q 118 78 185 -19 q 50 321 50 175 q 116 562 50 464 q 275 659 182 659 q 343 644 310 659 q 408 596 376 628 l 408 829 q 363 901 408 901 q 315 890 347 901 l 304 911 l 494 996 l 519 996 l 519 596 q 582 644 549 628 q 652 659 615 659 q 806 568 736 659 q 876 318 876 476 q 808 74 876 167 q 652 -19 740 -19 q 584 -3 617 -19 q 519 44 551 13 l 519 -163 q 543 -244 519 -220 q 626 -267 568 -269 m 408 553 q 352 598 378 583 q 302 613 326 613 q 203 540 237 613 q 170 321 170 467 q 204 101 170 174 q 304 28 237 28 q 353 43 327 28 q 408 87 379 58 l 408 553 m 519 87 q 572 42 547 58 q 621 27 598 27 q 723 99 689 27 q 756 315 756 171 q 723 538 756 464 q 623 613 690 613 q 573 598 600 613 q 519 553 547 583 l 519 87 z "},"х":{"ha":694,"x_min":24,"x_max":671,"o":"m 31 644 l 321 644 l 321 619 q 269 585 269 616 q 296 524 269 566 l 355 430 l 421 528 q 446 583 446 565 q 395 619 446 616 l 395 644 l 608 644 l 608 619 q 449 488 537 618 l 381 388 l 490 216 q 588 77 546 127 q 671 25 630 27 l 671 0 l 387 0 l 387 25 q 446 57 446 25 q 406 142 446 78 l 314 289 l 195 113 q 172 60 172 79 q 234 25 172 25 l 234 0 l 24 0 l 24 25 q 164 148 84 29 l 288 330 l 178 502 q 111 589 142 559 q 31 619 80 618 l 31 644 z "},"ц":{"ha":787,"x_min":37,"x_max":749,"o":"m 37 644 l 342 644 l 342 619 q 269 597 289 619 q 250 515 250 575 l 250 102 q 262 53 250 60 q 323 45 275 45 l 480 45 q 529 55 520 45 q 538 106 538 65 l 538 515 q 518 595 538 571 q 446 619 498 619 l 446 644 l 749 644 l 749 619 q 671 595 693 617 q 650 515 650 572 l 650 119 q 675 43 650 62 q 749 25 700 25 l 749 -172 l 723 -172 q 533 0 713 0 l 37 0 l 37 25 q 138 127 138 26 l 138 515 q 114 600 138 581 q 37 619 89 619 l 37 644 z "},"ч":{"ha":737,"x_min":26,"x_max":703,"o":"m 26 644 l 321 644 l 321 619 q 249 597 268 619 q 229 516 229 574 l 229 401 q 250 326 229 346 q 340 305 271 305 q 490 345 408 305 l 490 516 q 467 599 490 579 q 398 619 444 619 l 398 644 l 703 644 l 703 619 q 624 595 646 617 q 602 516 602 572 l 602 136 q 625 52 602 75 q 703 25 648 28 l 703 0 l 382 0 l 382 25 q 466 50 441 26 q 490 127 490 73 l 490 310 q 265 252 395 252 q 169 270 202 252 q 126 312 136 287 q 117 401 117 336 l 117 516 q 95 599 117 578 q 26 619 72 619 l 26 644 z "},"ш":{"ha":1125,"x_min":35,"x_max":1089,"o":"m 1089 644 l 1089 619 q 1011 590 1031 619 q 991 479 991 562 l 991 125 q 1014 50 991 75 q 1089 25 1037 25 l 1089 0 l 35 0 l 35 25 q 110 51 87 28 q 132 131 132 74 l 132 519 q 111 596 132 575 q 35 619 89 618 l 35 644 l 340 644 l 340 619 q 264 592 283 618 q 244 503 244 566 l 244 119 q 255 57 244 68 q 314 45 267 45 l 444 45 q 496 57 486 45 q 507 119 507 69 l 507 519 q 486 595 507 571 q 414 619 465 619 l 414 644 l 713 644 l 713 619 q 641 594 665 619 q 618 494 618 570 l 618 119 q 630 57 618 68 q 692 45 642 45 l 812 45 q 868 57 856 45 q 880 113 880 69 l 880 519 q 860 593 880 570 q 786 619 840 617 l 786 644 l 1089 644 z "},"щ":{"ha":1125,"x_min":35,"x_max":1089,"o":"m 35 0 l 35 25 q 110 51 87 28 q 132 131 132 74 l 132 519 q 111 596 132 575 q 35 619 89 618 l 35 644 l 340 644 l 340 619 q 264 593 284 618 q 244 503 244 567 l 244 119 q 255 57 244 69 q 314 45 267 45 l 444 45 q 496 57 486 45 q 507 119 507 69 l 507 519 q 486 595 507 571 q 414 619 465 619 l 414 644 l 713 644 l 713 619 q 641 594 665 619 q 618 494 618 570 l 618 119 q 630 57 618 68 q 692 45 642 45 l 812 45 q 868 57 856 45 q 880 113 880 68 l 880 519 q 861 593 880 569 q 786 619 841 617 l 786 644 l 1089 644 l 1089 619 q 1011 590 1031 619 q 991 479 991 562 l 991 136 q 1011 48 991 71 q 1089 25 1031 25 l 1089 -172 l 1063 -172 q 874 0 1053 0 l 35 0 z "},"ъ":{"ha":772,"x_min":30,"x_max":732,"o":"m 55 644 l 477 644 l 477 619 q 388 599 418 619 q 358 499 358 578 l 358 366 l 437 366 q 602 351 545 366 q 695 293 659 336 q 732 192 732 251 q 667 60 732 120 q 443 0 602 0 l 139 0 l 139 25 q 222 50 197 25 q 247 127 247 74 l 247 600 l 179 600 q 100 576 124 600 q 59 473 77 552 l 30 473 l 55 644 m 358 56 q 433 44 400 44 q 555 84 509 44 q 602 186 602 124 q 561 285 602 249 q 447 321 519 321 q 358 314 398 321 l 358 56 z "},"ы":{"ha":999,"x_min":35,"x_max":963,"o":"m 35 0 l 35 25 q 118 47 93 25 q 143 128 143 70 l 143 517 q 120 595 143 572 q 35 619 98 619 l 35 644 l 374 644 l 374 619 q 285 599 315 619 q 255 499 255 579 l 255 366 l 334 366 q 498 351 441 366 q 592 293 555 336 q 629 192 629 251 q 587 83 629 132 q 489 17 545 34 q 323 0 433 0 l 35 0 m 255 56 q 329 44 297 44 q 452 84 406 44 q 498 186 498 124 q 457 285 498 249 q 343 321 416 321 q 255 314 294 321 l 255 56 m 642 644 l 963 644 l 963 619 q 881 595 903 619 q 858 509 858 570 l 858 121 q 882 47 858 68 q 963 25 905 25 l 963 0 l 642 0 l 642 25 q 722 47 699 25 q 746 121 746 68 l 746 509 q 724 593 746 568 q 642 619 701 618 l 642 644 z "},"ь":{"ha":682,"x_min":38,"x_max":631,"o":"m 258 366 l 336 366 q 501 351 444 366 q 595 293 558 336 q 631 192 631 251 q 589 83 631 132 q 491 17 547 34 q 326 0 435 0 l 38 0 l 38 25 q 121 47 96 25 q 146 128 146 70 l 146 517 q 123 595 146 572 q 38 619 100 619 l 38 644 l 376 644 l 376 619 q 288 599 318 619 q 258 499 258 579 l 258 366 m 258 56 q 332 44 302 44 q 457 86 414 44 q 500 186 500 129 q 460 285 500 249 q 346 321 420 321 q 258 314 297 321 l 258 56 z "},"э":{"ha":618,"x_min":29,"x_max":574,"o":"m 444 362 l 231 362 l 231 319 l 444 319 q 396 103 442 175 q 257 31 349 31 q 50 141 144 31 l 29 125 q 281 -19 137 -19 q 489 80 404 -19 q 574 335 574 178 q 487 574 574 488 q 286 659 399 659 q 174 639 232 659 q 121 627 139 627 q 90 637 103 627 l 78 637 l 78 448 l 103 448 q 167 574 116 534 q 279 615 218 615 q 400 552 359 615 q 444 362 441 489 z "},"ю":{"ha":1088,"x_min":36,"x_max":1044,"o":"m 252 354 l 410 354 q 517 572 430 486 q 726 659 604 659 q 948 569 851 659 q 1044 335 1044 479 q 946 86 1044 191 q 713 -19 848 -19 q 501 76 586 -19 q 410 313 416 170 l 252 313 l 252 121 q 277 47 252 69 q 357 25 301 25 l 357 0 l 36 0 l 36 25 q 116 47 92 25 q 141 121 141 69 l 141 509 q 118 593 141 568 q 36 619 96 618 l 36 644 l 357 644 l 357 619 q 279 599 305 619 q 252 509 252 579 l 252 354 m 534 364 q 599 118 534 210 q 743 26 665 26 q 857 89 805 26 q 909 286 909 152 q 847 527 909 439 q 700 614 785 614 q 580 546 627 614 q 534 364 534 478 z "},"я":{"ha":676,"x_min":18,"x_max":642,"o":"m 18 0 l 18 25 l 32 25 q 106 73 75 25 l 266 309 q 139 374 181 332 q 96 475 96 416 q 154 592 96 539 q 347 644 212 644 l 642 644 l 642 619 q 568 587 588 614 q 548 492 548 560 l 548 136 q 568 51 548 76 q 642 25 589 26 l 642 0 l 342 0 l 342 25 q 416 53 396 27 q 437 144 437 79 l 437 290 l 380 290 l 180 0 l 18 0 m 437 590 q 367 600 402 600 q 261 563 296 600 q 226 475 226 526 q 272 378 226 420 q 412 336 318 336 l 437 336 l 437 590 z "},"ё":{"ha":608,"x_min":43,"x_max":574,"o":"m 209 958 q 261 936 239 958 q 283 884 283 914 q 261 832 283 853 q 209 810 239 810 q 157 832 179 810 q 136 884 136 853 q 158 937 136 916 q 209 958 180 958 m 448 956 q 500 935 479 956 q 522 883 522 913 q 500 831 522 853 q 448 810 479 810 q 396 831 417 810 q 374 883 374 853 q 396 935 374 914 q 448 956 418 956 m 574 227 q 480 46 552 112 q 315 -19 409 -19 q 123 68 203 -19 q 43 314 43 155 q 121 564 43 468 q 330 659 199 659 q 508 587 441 659 q 574 402 574 515 l 138 402 q 138 376 138 385 q 201 181 138 273 q 368 90 264 90 q 553 238 501 90 l 574 227 m 431 445 q 390 567 429 524 q 293 610 352 610 q 191 565 233 610 q 141 445 148 520 l 431 445 z "},"ђ":{"ha":685,"x_min":26,"x_max":625,"o":"m 247 808 l 538 808 l 538 766 l 247 766 l 247 519 q 338 624 292 589 q 432 659 385 659 q 569 566 513 659 q 625 260 625 473 q 577 -49 625 85 q 450 -238 528 -182 q 304 -294 372 -294 q 281 -293 298 -294 l 281 -267 q 399 -211 349 -256 q 471 -77 448 -165 q 494 235 494 11 q 485 441 494 376 q 447 541 477 507 q 380 574 418 574 q 315 551 349 574 q 247 479 281 527 l 247 153 q 271 48 247 72 q 359 25 294 25 l 359 0 l 34 0 l 34 25 q 113 51 91 26 q 135 153 135 77 l 135 766 l 26 766 l 26 808 l 135 808 q 74 897 134 897 q 34 889 57 897 l 26 913 l 221 996 l 247 996 l 247 808 z "},"ѓ":{"ha":615,"x_min":35,"x_max":597,"o":"m 208 763 l 279 996 l 434 996 l 231 763 l 208 763 m 35 0 l 35 25 q 123 53 102 25 q 144 143 144 80 l 144 531 q 127 598 144 576 q 35 619 110 619 l 35 644 l 572 644 l 597 473 l 568 473 q 527 575 550 551 q 448 600 504 600 l 256 600 l 256 156 q 280 50 256 75 q 374 25 304 25 l 374 0 l 35 0 z "},"є":{"ha":618,"x_min":43,"x_max":588,"o":"m 174 362 l 386 362 l 386 319 l 174 319 q 221 103 175 175 q 360 31 268 31 q 567 141 473 31 l 588 125 q 336 -19 480 -19 q 129 80 214 -19 q 43 335 43 178 q 131 574 43 488 q 332 659 218 659 q 443 639 385 659 q 496 627 478 627 q 527 637 514 627 l 539 637 l 539 448 l 514 448 q 450 574 501 534 q 338 615 399 615 q 217 552 258 615 q 174 362 176 489 z "},"ѕ":{"ha":535,"x_min":57,"x_max":478,"o":"m 431 644 l 431 448 l 406 448 q 352 571 396 521 q 248 621 309 621 q 168 596 199 621 q 136 539 136 572 q 168 463 136 494 q 270 397 199 431 q 433 292 387 340 q 478 173 478 243 q 410 31 478 80 q 271 -19 342 -19 q 161 1 227 -19 q 115 10 127 10 q 90 0 100 10 l 61 0 l 61 217 l 85 217 q 153 71 99 119 q 271 23 207 23 q 346 51 313 23 q 379 118 379 79 q 347 199 379 165 q 208 292 315 233 q 81 391 104 350 q 57 476 57 432 q 112 607 57 555 q 250 659 168 659 q 328 646 283 659 q 378 636 363 636 q 406 644 395 636 l 431 644 z "},"і":{"ha":376,"x_min":33,"x_max":345,"o":"m 191 1000 q 241 979 220 1000 q 262 928 262 958 q 241 877 262 898 q 191 857 220 857 q 140 878 161 857 q 119 928 119 899 q 140 979 119 958 q 191 1000 161 1000 m 33 587 l 225 659 l 249 659 l 249 154 q 270 54 249 78 q 345 25 290 29 l 345 0 l 33 0 l 33 25 q 112 46 84 26 q 140 154 140 66 l 140 461 q 125 543 140 518 q 71 568 110 568 q 40 562 55 568 l 33 587 z "},"ї":{"ha":376,"x_min":-2,"x_max":383,"o":"m 71 958 q 122 937 100 958 q 144 884 144 916 q 123 832 144 853 q 71 810 101 810 q 20 832 41 810 q -2 884 -2 854 q 20 936 -2 914 q 71 958 41 958 m 310 956 q 362 935 340 956 q 383 883 383 914 q 362 831 383 853 q 310 810 340 810 q 258 831 280 810 q 237 883 237 853 q 258 935 237 914 q 310 956 280 956 m 33 587 l 225 659 l 249 659 l 249 154 q 270 54 249 78 q 346 25 291 29 l 346 0 l 33 0 l 33 25 q 113 46 85 26 q 141 154 141 66 l 141 461 q 126 543 141 518 q 71 568 111 568 q 40 562 56 568 l 33 587 z "},"ј":{"ha":376,"x_min":-101,"x_max":276,"o":"m 204 1000 q 255 979 233 1000 q 276 928 276 958 q 255 878 276 899 q 204 857 233 857 q 154 878 175 857 q 132 928 132 899 q 154 979 132 958 q 204 1000 175 1000 m 41 589 l 243 659 l 267 659 l 267 33 q 205 -213 267 -131 q 21 -294 144 -294 q -65 -275 -28 -294 q -101 -224 -101 -256 q -83 -184 -101 -201 q -43 -167 -66 -167 q 28 -200 -9 -167 q 90 -239 70 -239 q 142 -201 130 -239 q 154 -30 154 -163 l 154 459 q 90 572 154 572 q 48 564 73 572 l 41 589 z "},"љ":{"ha":1063,"x_min":5,"x_max":1014,"o":"m 736 644 l 736 619 q 659 599 687 619 q 631 499 631 579 l 631 366 l 728 366 q 943 323 873 366 q 1014 192 1014 281 q 972 83 1014 132 q 874 17 930 34 q 708 0 819 0 l 412 0 l 412 25 q 497 49 475 25 q 519 128 519 73 l 519 600 l 284 600 l 284 252 q 241 55 284 121 q 113 -10 199 -10 q 32 14 59 -10 q 5 66 5 39 q 21 104 5 88 q 60 120 37 120 q 121 92 89 120 q 170 67 149 67 q 222 108 204 67 q 239 268 239 149 l 239 515 q 216 596 239 573 q 137 619 192 619 l 137 644 l 736 644 m 631 56 q 722 44 676 44 q 835 83 787 44 q 883 187 883 121 q 837 291 883 260 q 697 321 791 321 l 631 321 l 631 56 z "},"њ":{"ha":1071,"x_min":34,"x_max":1022,"o":"m 250 366 l 528 366 l 528 517 q 505 596 528 572 q 419 619 481 619 l 419 644 l 744 644 l 744 619 q 662 593 685 619 q 640 499 640 566 l 640 366 l 736 366 q 951 323 881 366 q 1022 192 1022 281 q 958 60 1022 120 q 732 0 893 0 l 419 0 l 419 25 q 506 49 484 25 q 528 128 528 73 l 528 321 l 250 321 l 250 121 q 274 47 250 68 q 355 25 297 25 l 355 0 l 34 0 l 34 25 q 114 47 90 25 q 139 121 139 69 l 139 509 q 116 593 139 568 q 34 619 94 618 l 34 644 l 355 644 l 355 619 q 277 599 303 619 q 250 509 250 579 l 250 366 m 640 56 q 727 45 689 45 q 844 83 798 45 q 891 187 891 122 q 845 290 891 259 q 705 321 800 321 l 640 321 l 640 56 z "},"ћ":{"ha":758,"x_min":28,"x_max":733,"o":"m 135 808 q 75 897 134 897 q 36 889 57 897 l 28 913 l 221 996 l 247 996 l 247 808 l 551 808 l 551 766 l 247 766 l 247 524 q 354 623 293 587 q 466 659 414 659 q 564 624 522 659 q 617 537 605 589 q 629 391 629 485 l 629 153 q 652 49 629 73 q 733 25 675 25 l 733 0 l 416 0 l 416 25 q 502 56 486 26 q 518 153 518 87 l 518 419 q 511 505 518 477 q 476 554 505 532 q 410 576 448 576 q 332 554 373 576 q 247 490 291 533 l 247 153 q 270 48 247 72 q 357 25 294 25 l 357 0 l 36 0 l 36 25 q 113 51 92 26 q 135 153 135 76 l 135 766 l 36 766 l 36 808 l 135 808 z "},"ќ":{"ha":729,"x_min":38,"x_max":698,"o":"m 317 763 l 389 996 l 543 996 l 341 763 l 317 763 m 38 644 l 356 644 l 356 619 q 277 593 300 619 q 255 507 255 567 l 255 363 q 282 363 273 363 q 429 494 387 363 q 583 652 479 652 q 647 631 625 652 q 669 587 669 610 q 652 546 669 564 q 606 528 635 528 q 574 535 592 528 q 528 546 545 546 q 491 532 505 546 q 465 471 478 517 q 393 356 441 389 q 502 238 444 340 q 509 226 505 232 l 581 111 q 644 40 618 54 q 698 25 669 26 l 698 0 l 518 0 l 347 275 q 284 325 316 325 q 255 321 274 325 l 255 127 q 356 25 255 26 l 356 0 l 38 0 l 38 25 q 120 50 97 27 q 143 127 143 73 l 143 507 q 118 597 143 574 q 38 619 94 619 l 38 644 z "},"ў":{"ha":694,"x_min":23,"x_max":673,"o":"m 148 894 q 197 944 148 944 q 275 865 240 944 q 370 794 304 794 q 435 813 413 794 q 475 877 456 831 q 544 944 502 944 q 593 890 593 944 q 528 794 593 837 q 380 751 463 751 q 212 791 276 751 q 148 894 148 830 m 23 644 l 311 644 l 311 619 q 252 607 269 618 q 235 570 235 595 q 248 513 235 542 l 406 161 l 513 455 q 553 578 553 562 q 489 619 553 615 l 489 644 l 673 644 l 673 619 q 625 590 642 614 q 567 455 609 565 l 392 -19 q 274 -238 332 -181 q 143 -294 215 -294 q 76 -273 102 -294 q 50 -219 50 -252 q 71 -173 50 -191 q 123 -155 91 -155 q 186 -173 143 -155 q 218 -180 205 -180 q 331 -42 279 -180 l 352 14 l 129 513 q 23 619 82 616 l 23 644 z "},"џ":{"ha":767,"x_min":39,"x_max":727,"o":"m 396 -172 l 371 -172 q 206 0 359 0 l 39 0 l 39 25 q 117 52 96 26 q 138 143 138 77 l 138 501 q 116 593 138 568 q 39 619 94 618 l 39 644 l 347 644 l 347 619 q 271 592 292 618 q 250 501 250 567 l 250 102 q 264 51 250 57 q 322 45 279 45 l 459 45 q 508 55 499 45 q 517 106 517 65 l 517 501 q 496 593 517 568 q 419 619 474 618 l 419 644 l 727 644 l 727 619 q 650 592 671 618 q 629 501 629 567 l 629 136 q 650 48 629 71 q 727 25 671 25 l 727 0 l 560 0 q 396 -172 408 0 z "},"Ґ":{"ha":724,"x_min":44,"x_max":677,"o":"m 44 954 l 425 954 q 548 964 511 954 q 613 1008 586 975 q 651 1105 641 1042 l 677 1105 l 677 895 l 332 895 l 332 146 q 361 54 332 81 q 471 25 390 26 l 471 0 l 44 0 l 44 25 q 134 40 112 25 q 168 71 156 56 q 180 146 180 86 l 180 812 q 151 902 180 877 q 44 928 122 927 l 44 954 z "},"ґ":{"ha":521,"x_min":36,"x_max":490,"o":"m 490 782 l 490 600 l 258 600 l 258 136 q 280 47 258 69 q 364 25 303 25 l 364 0 l 36 0 l 36 25 q 121 52 98 25 q 144 151 144 79 l 144 523 q 125 600 144 581 q 36 619 106 619 l 36 644 l 293 644 q 415 674 376 644 q 465 782 454 703 l 490 782 z "},"–":{"ha":694,"x_min":-5,"x_max":700,"o":"m -5 345 l 700 345 l 700 300 l -5 300 l -5 345 z "},"—":{"ha":1389,"x_min":-5,"x_max":1394,"o":"m -5 345 l 1394 345 l 1394 300 l -5 300 l -5 345 z "},"‘":{"ha":376,"x_min":87,"x_max":288,"o":"m 288 971 q 136 793 136 911 q 142 771 136 779 q 157 764 147 764 q 176 770 163 764 q 214 781 199 781 q 267 760 245 781 q 288 709 288 738 q 262 651 288 675 q 200 628 236 628 q 117 669 148 628 q 87 768 87 710 q 288 996 87 925 l 288 971 z "},"’":{"ha":376,"x_min":87,"x_max":288,"o":"m 87 631 q 239 809 239 690 q 234 830 239 823 q 218 837 229 837 q 199 831 213 837 q 161 821 176 821 q 109 842 131 821 q 87 894 87 864 q 113 951 87 928 q 175 975 138 975 q 258 934 227 975 q 288 834 288 892 q 87 604 288 675 l 87 631 z "},"‚":{"ha":463,"x_min":131,"x_max":338,"o":"m 163 -214 l 163 -186 q 245 -126 215 -157 q 275 -42 275 -96 q 252 -5 275 -5 q 231 -9 245 -5 q 200 -16 215 -16 q 153 4 174 -16 q 131 54 131 23 q 159 113 131 90 q 220 136 188 136 q 302 97 266 136 q 338 -1 338 58 q 292 -131 338 -70 q 163 -214 245 -193 z "},"“":{"ha":694,"x_min":87,"x_max":606,"o":"m 288 972 q 136 793 136 912 q 142 772 136 779 q 157 765 147 765 q 176 771 163 765 q 214 781 199 781 q 266 760 244 781 q 288 709 288 739 q 262 651 288 675 q 200 628 236 628 q 117 669 148 628 q 87 768 87 710 q 288 996 87 927 l 288 972 m 606 972 q 454 793 454 913 q 459 772 454 779 q 475 765 465 765 q 493 771 479 765 q 532 781 516 781 q 583 760 562 781 q 605 709 605 738 q 579 651 605 675 q 517 628 554 628 q 434 669 465 628 q 404 768 404 710 q 606 996 404 927 l 606 972 z "},"”":{"ha":694,"x_min":84,"x_max":609,"o":"m 408 631 q 559 809 559 690 q 554 830 559 823 q 538 837 549 837 q 519 831 533 837 q 481 821 497 821 q 430 842 452 821 q 408 894 408 864 q 433 951 408 928 q 496 975 459 975 q 576 936 544 975 q 609 834 609 897 q 408 604 609 675 l 408 631 m 84 631 q 236 809 236 690 q 231 830 236 823 q 215 837 226 837 q 197 831 210 837 q 158 821 174 821 q 106 842 128 821 q 85 894 85 864 q 110 951 85 928 q 172 975 136 975 q 255 934 224 975 q 286 834 286 892 q 84 604 286 675 l 84 631 z "},"„":{"ha":694,"x_min":94,"x_max":600,"o":"m 398 -205 q 550 -28 550 -146 q 545 -7 550 -14 q 529 0 540 0 q 511 -7 524 0 q 473 -19 488 -19 q 420 3 442 -19 q 399 56 399 25 q 425 114 399 90 q 487 138 450 138 q 569 97 538 138 q 600 -2 600 56 q 398 -232 600 -162 l 398 -205 m 94 -205 q 245 -28 245 -146 q 240 -7 245 -14 q 224 0 235 0 q 206 -7 219 0 q 168 -19 184 -19 q 116 3 138 -19 q 94 56 94 25 q 120 114 94 90 q 182 138 146 138 q 264 97 234 138 q 295 -2 295 56 q 94 -232 295 -162 l 94 -205 z "},"†":{"ha":694,"x_min":67,"x_max":628,"o":"m 333 659 q 303 773 333 694 q 272 899 272 857 q 295 959 272 932 q 346 985 318 985 q 399 957 376 985 q 421 895 421 929 q 387 770 421 854 l 365 715 q 358 659 358 699 q 482 692 407 661 q 564 713 530 713 q 608 693 588 713 q 628 645 628 673 q 607 597 628 616 q 562 578 586 578 q 481 597 526 578 q 358 632 403 629 q 425 469 361 528 q 358 -283 358 228 l 333 -283 q 263 469 330 245 q 333 632 333 526 q 205 594 296 629 q 133 579 165 579 q 87 598 106 579 q 67 646 67 618 q 87 693 67 674 q 134 713 107 713 q 202 697 164 713 q 333 659 293 660 z "},"‡":{"ha":694,"x_min":94,"x_max":602,"o":"m 335 717 q 330 766 334 748 q 296 854 325 784 q 280 931 280 895 q 300 980 280 958 q 349 1002 321 1002 q 397 979 378 1002 q 416 928 416 956 q 387 821 416 893 q 361 717 362 760 l 367 717 q 473 749 395 717 q 543 764 511 764 q 584 746 566 764 q 602 703 602 728 q 584 660 602 676 q 544 644 567 644 q 472 660 511 644 q 361 691 401 691 q 426 571 364 615 q 361 345 361 497 q 426 132 361 208 q 361 14 369 92 q 477 47 393 14 q 542 62 513 62 q 583 44 564 62 q 602 -1 602 26 q 583 -44 602 -26 q 542 -61 564 -61 q 477 -45 514 -61 q 361 -12 400 -12 q 396 -138 361 -60 q 418 -227 418 -188 q 398 -272 418 -250 q 349 -294 378 -294 q 300 -272 321 -294 q 279 -222 279 -250 q 298 -140 279 -187 q 335 -12 335 -56 q 243 -35 298 -12 q 154 -61 179 -61 q 113 -43 132 -61 q 94 1 94 -26 q 113 44 94 27 q 159 62 132 62 q 237 39 186 62 q 335 14 292 15 q 271 132 327 92 q 335 359 335 218 q 271 571 335 502 q 335 691 331 616 q 237 665 298 691 q 159 644 184 644 q 112 661 131 644 q 94 705 94 679 q 111 747 94 730 q 155 764 129 764 q 240 741 183 764 q 335 717 302 715 z "},"•":{"ha":492,"x_min":74,"x_max":418,"o":"m 74 477 q 123 597 74 545 q 245 649 172 649 q 368 598 317 649 q 418 477 418 548 q 367 355 418 406 q 245 304 317 304 q 123 356 172 304 q 74 477 74 408 z "},"…":{"ha":1389,"x_min":155,"x_max":1235,"o":"m 1158 137 q 1212 115 1189 137 q 1235 59 1235 92 q 1212 4 1235 27 q 1158 -19 1190 -19 q 1103 4 1126 -19 q 1080 59 1080 27 q 1103 114 1080 92 q 1158 137 1126 137 m 232 137 q 286 115 263 137 q 309 59 309 92 q 287 4 309 27 q 232 -19 264 -19 q 177 4 200 -19 q 155 59 155 27 q 178 115 155 92 q 232 137 201 137 m 694 137 q 748 115 726 137 q 771 59 771 92 q 749 4 771 27 q 694 -19 726 -19 q 640 4 662 -19 q 617 59 617 26 q 640 115 617 92 q 694 137 663 137 z "},"‰":{"ha":1389,"x_min":13,"x_max":1377,"o":"m 755 974 l 815 974 l 151 -39 l 92 -39 l 755 974 m 13 726 q 66 900 13 831 q 193 969 119 969 q 321 901 268 969 q 375 724 375 833 q 321 545 375 613 q 197 476 268 476 q 66 546 119 476 q 13 726 13 616 m 94 725 q 195 498 94 498 q 295 718 295 498 q 193 949 295 949 q 94 725 94 949 m 549 242 q 605 419 549 354 q 730 484 661 484 q 855 420 798 484 q 911 240 911 356 q 854 56 911 120 q 733 -8 798 -8 q 602 62 654 -8 q 549 242 549 133 m 630 241 q 732 14 630 14 q 831 234 831 14 q 730 465 831 465 q 630 241 630 465 m 1015 242 q 1070 419 1015 354 q 1194 484 1125 484 q 1323 416 1270 484 q 1377 240 1377 347 q 1320 56 1377 120 q 1198 -8 1263 -8 q 1072 57 1128 -8 q 1015 242 1015 121 m 1095 241 q 1196 14 1095 14 q 1296 234 1296 14 q 1194 465 1296 465 q 1095 241 1095 465 z "},"‹":{"ha":376,"x_min":36,"x_max":345,"o":"m 305 673 l 345 673 l 178 351 l 345 25 l 305 25 l 36 351 l 305 673 z "},"›":{"ha":376,"x_min":32,"x_max":340,"o":"m 72 25 l 32 25 l 199 350 l 32 673 l 72 673 l 340 350 l 72 25 z "},"№":{"ha":1389,"x_min":12,"x_max":1362,"o":"m 361 954 l 768 311 l 768 728 q 784 864 768 821 q 842 936 800 907 q 940 964 885 964 q 1023 940 992 964 q 1054 879 1054 915 q 1033 831 1054 852 q 976 809 1012 809 q 920 826 948 809 q 871 844 890 844 q 836 826 843 844 q 828 724 828 808 l 828 -21 l 801 -21 l 299 772 l 299 210 q 255 37 299 95 q 122 -21 211 -21 q 41 5 71 -21 q 12 64 12 32 q 32 114 12 94 q 87 134 53 134 q 159 113 121 134 q 195 100 183 100 q 232 126 224 100 q 239 252 239 152 l 239 798 q 208 906 239 884 q 110 928 176 928 l 110 954 l 361 954 m 905 445 q 965 610 905 539 q 1126 681 1024 681 q 1291 619 1219 681 q 1362 453 1362 557 q 1299 283 1362 351 q 1143 216 1236 216 q 977 281 1048 216 q 905 445 905 346 m 1008 502 q 1055 321 1008 392 q 1159 250 1101 250 q 1234 284 1203 250 q 1265 376 1265 318 q 1227 557 1265 469 q 1118 645 1190 645 q 1040 608 1071 645 q 1008 502 1008 572 m 951 85 l 1304 85 l 1304 0 l 951 0 l 951 85 z "},"™":{"ha":1360,"x_min":20,"x_max":1337,"o":"m 34 954 l 528 954 l 543 817 l 519 817 q 491 882 516 851 q 388 913 467 913 l 337 913 l 337 519 q 351 448 337 463 q 409 431 364 433 l 409 406 l 155 406 l 155 431 q 208 444 193 433 q 223 519 223 455 l 223 913 l 172 913 q 81 893 111 913 q 43 817 52 873 l 20 817 l 34 954 m 783 954 l 968 566 l 1148 954 l 1337 954 l 1337 928 q 1276 911 1289 927 q 1262 838 1262 895 l 1262 519 q 1275 448 1262 462 q 1337 431 1288 433 l 1337 406 l 1067 406 l 1067 431 q 1133 448 1118 432 q 1148 519 1148 465 l 1148 853 l 940 406 l 918 406 l 709 846 l 709 519 q 721 449 709 467 q 772 431 733 431 l 797 431 l 797 406 l 589 406 l 589 431 q 651 447 637 431 q 666 519 666 463 l 666 836 q 653 912 666 896 q 589 928 640 928 l 589 954 l 783 954 z "}}}
